<svg xmlns="http://www.w3.org/2000/svg" width="66" height="66" viewBox="0 0 66 66" fill="none">
  <path d="M29.1699 9.50001C31.0944 6.16667 35.9056 6.16667 37.8301 9.5L55.5836 40.25C57.5081 43.5833 55.1025 47.75 51.2535 47.75H15.7465C11.8975 47.75 9.49185 43.5833 11.4164 40.25L29.1699 9.50001Z" fill="#F38596"/>
  <path d="M25.113 13.6607L27.9585 8.73214L28.3915 8.98214L29.1029 7.74999C29.1601 7.65087 29.2201 7.55516 29.2825 7.46284L28.8685 7.18261C29.464 6.30262 30.2748 5.68873 31.1708 5.34094L31.3517 5.80705C31.7727 5.64361 32.2153 5.54525 32.6627 5.51237L32.6261 5.01371C32.875 4.99542 33.125 4.99542 33.3739 5.01372L33.3373 5.51237C34.2236 5.57751 35.0901 5.8994 35.8089 6.47504L36.1215 6.08478C36.4993 6.3874 36.841 6.75335 37.1315 7.18262L36.7175 7.46285C36.7799 7.55517 36.8399 7.65088 36.8971 7.75L37.6085 8.98214L38.0415 8.73214L43.7325 18.5893L43.2995 18.8393L46.145 23.7679L46.578 23.5179L48.0008 25.9821L47.5678 26.2321L53.2588 36.0893L53.6918 35.8393L56.5373 40.7679L56.1043 41.0179L56.8157 42.25C56.8729 42.3491 56.9258 42.4489 56.9746 42.5492L57.4243 42.3307C57.8886 43.2864 58.0148 44.2956 57.8681 45.2454L57.3739 45.169C57.305 45.6153 57.1689 46.0478 56.9736 46.4517L57.4238 46.6693C57.3152 46.894 57.1902 47.1106 57.0499 47.317L56.6363 47.0359C56.1368 47.7709 55.4247 48.3604 54.5668 48.695L54.7485 49.1609C54.2975 49.3368 53.8097 49.4498 53.2927 49.4867L53.2571 48.988C53.1459 48.9959 53.033 49 52.9186 49H51.4958V49.5H40.1138V49H34.4228V49.5H31.5772V49H20.1952V49.5H14.5042V49H13.0814C12.9669 49 12.8541 48.9959 12.7429 48.988L12.7073 49.4867C11.6474 49.411 10.7103 49.0157 9.96117 48.4137L10.2744 48.0239C9.92232 47.7411 9.61584 47.4069 9.36366 47.0359L8.95013 47.317C8.80984 47.1106 8.6848 46.894 8.5762 46.6693L9.02637 46.4517C8.63963 45.6516 8.48512 44.7402 8.62427 43.8299L8.13001 43.7544C8.20316 43.2758 8.34921 42.7969 8.57572 42.3307L9.02545 42.5492C9.07416 42.4489 9.12707 42.3491 9.1843 42.25L9.89568 41.0179L9.46267 40.7679L15.1537 30.9107L15.5867 31.1607L18.4322 26.2321L17.9992 25.9821L19.422 23.5179L19.855 23.7679L25.546 13.9107L25.113 13.6607Z" stroke="#A21D21" stroke-dasharray="9 18 36 9 18 36"/>
  <path d="M35.7541 21L35.2213 33.2059H31.724L31.2186 21H35.7541ZM33.5137 39C32.7851 39 32.184 38.8023 31.7104 38.407C31.2368 38.0034 31 37.5175 31 36.9492C31 36.3562 31.2368 35.8703 31.7104 35.4914C32.1931 35.1126 32.7942 34.9231 33.5137 34.9231C34.2423 34.9231 34.8388 35.1167 35.3033 35.5038C35.7678 35.8826 36 36.3644 36 36.9492C36 37.5422 35.7678 38.0323 35.3033 38.4194C34.8479 38.8065 34.2514 39 33.5137 39Z" fill="white"/>
  <path d="M36.7541 21L36.2213 33.2059H32.724L32.2186 21H36.7541ZM34.5137 39C33.7851 39 33.184 38.8023 32.7104 38.407C32.2368 38.0034 32 37.5175 32 36.9492C32 36.3562 32.2368 35.8703 32.7104 35.4914C33.1931 35.1126 33.7942 34.9231 34.5137 34.9231C35.2423 34.9231 35.8388 35.1167 36.3033 35.5038C36.7678 35.8826 37 36.3644 37 36.9492C37 37.5422 36.7678 38.0323 36.3033 38.4194C35.8479 38.8065 35.2514 39 34.5137 39Z" fill="#A21D21"/>
</svg>