<svg width="316" height="716" viewBox="0 0 316 716" fill="none" xmlns="http://www.w3.org/2000/svg">
<path d="M-568.915 384.49C-559.351 358.805 -453.765 235.904 -452.424 185.826C-450.954 153.647 -440.519 124.44 -407.24 102.858C-347.226 67.4157 -308.827 91.9862 -253.885 109.53C-183.871 131.322 -125.182 120.078 -82.7435 61.3741C-47.6881 9.55143 11.9867 -11.9659 55.7979 6.54678C125.069 38.4028 95.9258 104.344 118.768 146.571C141.74 194.727 259.523 118.043 304.724 195.098C320.393 225.016 318.051 305.851 300.281 325.85C282.511 345.849 235.162 338.111 238.054 411.791C238.797 454.761 247.698 471.787 222.497 519.959C204.436 546.597 161.357 544.384 136.183 589.616C60.8059 725.052 30.4677 715.877 -87.913 714.068C-184.097 714.132 -272.204 734.066 -362.024 644.427C-387.208 623.685 -419.065 531.638 -503.505 511.074C-576.54 483.16 -578.478 410.175 -568.915 384.49Z" fill="#F38596"/>
<path d="M-488.531 380.157C-480.688 359.074 -394.093 258.196 -392.994 217.092C-391.788 190.679 -383.229 166.706 -355.937 148.991C-306.717 119.9 -275.225 140.067 -230.165 154.467C-172.745 172.354 -124.612 163.126 -89.807 114.941C-61.057 72.4041 -12.1158 54.7424 23.8151 69.9378C80.6262 96.0856 56.7252 150.211 75.4591 184.871C94.299 224.398 190.896 161.455 227.967 224.703C240.818 249.259 238.897 315.61 224.323 332.025C209.749 348.44 170.917 342.089 173.289 402.566C173.898 437.836 181.198 451.811 160.53 491.351C145.718 513.216 110.387 511.4 89.7414 548.526C27.9223 659.694 3.04095 652.162 -94.0466 650.677C-172.93 650.73 -245.189 667.093 -318.853 593.516C-339.508 576.49 -365.635 500.938 -434.886 484.059C-494.784 461.146 -496.374 401.24 -488.531 380.157Z" fill="#F04D65"/>
<path d="M-413.911 375.625C-407.716 358.937 -339.326 279.087 -338.458 246.55C-337.506 225.643 -330.746 206.667 -309.191 192.645C-270.319 169.618 -245.447 185.582 -209.86 196.98C-164.511 211.138 -126.497 203.834 -99.0094 165.693C-76.3034 132.023 -37.651 118.043 -9.27374 130.071C35.5941 150.768 16.7178 193.611 31.5133 221.046C46.3925 252.333 122.682 202.511 151.96 252.575C162.109 272.013 160.592 324.532 149.082 337.526C137.572 350.519 106.903 345.492 108.776 393.362C109.258 421.28 115.023 432.343 98.6999 463.64C87.0016 480.948 59.0985 479.51 42.7931 508.897C-6.03 596.892 -25.6806 590.93 -102.358 589.755C-164.658 589.797 -221.726 602.748 -279.904 544.509C-296.216 531.032 -316.85 471.229 -371.544 457.868C-418.85 439.731 -420.105 392.313 -413.911 375.625Z" fill="#ED1E2B"/>
<path d="M-331.893 369.836C-327.472 357.958 -278.665 301.125 -278.045 277.968C-277.365 263.087 -272.541 249.581 -257.158 239.601C-229.416 223.212 -211.666 234.574 -186.269 242.686C-153.905 252.764 -126.775 247.564 -107.158 220.418C-90.9534 196.454 -63.3683 186.503 -43.1164 195.064C-11.0956 209.795 -24.567 240.288 -14.0079 259.815C-3.3891 282.084 51.0567 246.623 71.9508 282.256C79.1943 296.09 78.1116 333.471 69.8973 342.719C61.683 351.967 39.7956 348.389 41.1323 382.46C41.4758 402.331 45.5905 410.204 33.9411 432.48C25.5924 444.799 5.67877 443.775 -5.95792 464.692C-40.8014 527.321 -54.8254 523.078 -109.548 522.242C-154.009 522.271 -194.737 531.49 -236.257 490.038C-247.898 480.446 -262.624 437.881 -301.657 428.372C-335.418 415.463 -336.314 381.713 -331.893 369.836Z" fill="#A21D21"/>
</svg>
