<svg width="604" height="487" viewBox="0 0 604 487" fill="none" xmlns="http://www.w3.org/2000/svg">
<path d="M2.77804 261.472C9.28169 244.005 81.0855 160.426 81.9973 126.371C82.997 104.487 90.0939 84.6253 112.725 69.9485C153.537 45.846 179.651 62.5552 217.014 74.4856C264.627 89.3052 304.539 81.6592 333.399 41.7374C357.238 6.49545 397.82 -8.13741 427.614 4.45214C474.721 26.1158 454.902 70.9592 470.437 99.6756C486.059 132.424 566.157 80.275 596.895 132.676C607.552 153.022 605.959 207.994 593.874 221.594C581.79 235.194 549.59 229.932 551.556 280.038C552.062 309.26 558.115 320.839 540.977 353.598C528.695 371.713 499.399 370.208 482.279 400.968C431.019 493.071 410.388 486.831 329.883 485.601C264.473 485.645 204.556 499.201 143.474 438.242C126.347 424.136 104.683 361.54 47.2599 347.556C-2.40733 328.572 -3.72561 278.939 2.77804 261.472Z" fill="#F38596"/>
<path d="M57.4424 258.526C62.7763 244.188 121.665 175.586 122.413 147.633C123.232 129.671 129.053 113.368 147.613 101.321C181.085 81.5376 202.501 95.2527 233.144 105.045C272.193 117.209 304.925 110.933 328.594 78.1652C348.146 49.2383 381.428 37.2275 405.863 47.5612C444.497 65.3429 428.243 102.151 440.983 125.721C453.795 152.602 519.486 109.797 544.696 152.809C553.436 169.509 552.129 214.63 542.218 225.793C532.307 236.957 505.899 232.637 507.512 273.764C507.927 297.75 512.891 307.254 498.836 334.143C488.763 349.012 464.736 347.777 450.696 373.025C408.656 448.624 391.736 443.503 325.711 442.493C272.066 442.529 222.927 453.656 172.832 403.62C158.785 392.042 141.018 340.662 93.9234 329.184C53.1897 313.602 52.1086 272.863 57.4424 258.526Z" fill="#F04D65"/>
<path d="M108.188 255.443C112.401 244.095 158.909 189.793 159.5 167.666C160.147 153.449 164.744 140.544 179.402 131.008C205.837 115.349 222.752 126.205 246.952 133.956C277.792 143.585 303.643 138.617 322.336 112.679C337.778 89.7821 364.063 80.275 383.361 88.4546C413.873 102.53 401.037 131.665 411.098 150.322C421.217 171.599 473.098 137.717 493.008 171.763C499.91 184.982 498.878 220.698 491.051 229.534C483.223 238.37 462.367 234.951 463.641 267.506C463.968 286.491 467.889 294.014 456.788 315.298C448.833 327.068 429.858 326.09 418.769 346.075C385.567 405.916 372.204 401.862 320.059 401.062C277.692 401.091 238.883 409.898 199.319 370.293C188.226 361.128 174.194 320.459 137 311.373C104.829 299.039 103.976 266.792 108.188 255.443Z" fill="#ED1E2B"/>
<path d="M163.964 251.506C166.97 243.429 200.162 204.78 200.583 189.032C201.046 178.912 204.326 169.728 214.787 162.941C233.653 151.795 245.724 159.522 262.996 165.039C285.005 171.892 303.454 168.356 316.795 149.895C327.815 133.598 346.574 126.832 360.346 132.653C382.122 142.671 372.961 163.408 380.142 176.687C387.363 191.831 424.389 167.716 438.598 191.948C443.524 201.356 442.787 226.777 437.201 233.066C431.615 239.355 416.731 236.922 417.64 260.092C417.873 273.605 420.671 278.959 412.749 294.108C407.072 302.485 393.529 301.789 385.616 316.013C361.921 358.604 352.384 355.719 315.17 355.15C284.934 355.17 257.237 361.439 229.002 333.25C221.084 326.727 211.07 297.781 184.526 291.314C161.567 282.535 160.958 259.584 163.964 251.506Z" fill="#A21D21"/>
</svg>
