<svg width="35" height="44" viewBox="0 0 35 44" fill="none" xmlns="http://www.w3.org/2000/svg">
<path d="M20.7647 0C19.3293 6.89403 35.2007 16.8404 34.9979 26.0434C34.7602 36.8383 27.5135 43.5021 17.4426 43.3475C6.79629 42.5121 1.53525 37.6343 0.413721 27.3525C0.0769364 17.8173 9.86005 9.40364 20.7647 0Z" fill="url(#paint0_linear_382_1326)"/>
<path d="M13.4173 31.4973C12.3373 31.4973 11.3707 31.264 10.5173 30.7973C9.67733 30.3173 9.01066 29.664 8.51733 28.8373C8.03733 28.0106 7.79733 27.064 7.79733 25.9973C7.79733 24.9306 8.03733 23.9906 8.51733 23.1773C9.01066 22.3506 9.67733 21.6973 10.5173 21.2173C11.3707 20.7373 12.3373 20.4973 13.4173 20.4973C14.484 20.4973 15.4373 20.7373 16.2773 21.2173C17.1307 21.6973 17.7973 22.3506 18.2773 23.1773C18.7573 23.9906 18.9973 24.9306 18.9973 25.9973C18.9973 27.064 18.7573 28.0106 18.2773 28.8373C17.7973 29.664 17.1307 30.3173 16.2773 30.7973C15.4373 31.264 14.484 31.4973 13.4173 31.4973ZM13.4173 29.0173C13.9373 29.0173 14.404 28.8906 14.8173 28.6373C15.2307 28.3706 15.5507 28.0106 15.7773 27.5573C16.0173 27.0906 16.1373 26.5706 16.1373 25.9973C16.1373 25.4106 16.0173 24.8906 15.7773 24.4373C15.5507 23.9706 15.2307 23.6106 14.8173 23.3573C14.404 23.0906 13.9373 22.9573 13.4173 22.9573C12.884 22.9573 12.4107 23.0906 11.9973 23.3573C11.584 23.624 11.2573 23.984 11.0173 24.4373C10.7773 24.8906 10.664 25.4106 10.6773 25.9973C10.664 26.5706 10.7773 27.0906 11.0173 27.5573C11.2573 28.0106 11.584 28.3706 11.9973 28.6373C12.4107 28.8906 12.884 29.0173 13.4173 29.0173ZM20.754 26.8773V24.2373H27.294V26.8773H20.754Z" fill="white"/>
<defs>
<linearGradient id="paint0_linear_382_1326" x1="21.9843" y1="43.4166" x2="8.60479" y2="8.76912" gradientUnits="userSpaceOnUse">
<stop stop-color="#ED1E2B"/>
<stop offset="1" stop-color="#F04D65"/>
</linearGradient>
</defs>
</svg>
