<svg width="36" height="44" viewBox="0 0 36 44" fill="none" xmlns="http://www.w3.org/2000/svg">
<path d="M20.8457 0C19.4103 6.89403 35.2817 16.8404 35.079 26.0434C34.8412 36.8383 27.5945 43.5021 17.5237 43.3475C6.87734 42.5121 1.6163 37.6343 0.494776 27.3525C0.157991 17.8173 9.9411 9.40364 20.8457 0Z" fill="url(#paint0_linear_382_1308)"/>
<path d="M7.1719 31.2973L12.6519 17.2973H15.3319L20.7919 31.2973H17.7119L14.8919 23.7573C14.8119 23.544 14.7119 23.2706 14.5919 22.9373C14.4852 22.604 14.3719 22.2506 14.2519 21.8773C14.1319 21.504 14.0186 21.1506 13.9119 20.8173C13.8052 20.4706 13.7252 20.184 13.6719 19.9573L14.2119 19.9373C14.1319 20.244 14.0386 20.564 13.9319 20.8973C13.8386 21.2173 13.7386 21.5506 13.6319 21.8973C13.5252 22.2306 13.4119 22.5573 13.2919 22.8773C13.1719 23.1973 13.0586 23.5106 12.9519 23.8173L10.1319 31.2973H7.1719ZM9.7119 28.3573L10.6919 25.9373H17.1119L18.1119 28.3573H9.7119ZM20.9816 26.8773V24.2373H27.5216V26.8773H20.9816Z" fill="white"/>
<defs>
<linearGradient id="paint0_linear_382_1308" x1="22.0654" y1="43.4166" x2="8.68584" y2="8.76912" gradientUnits="userSpaceOnUse">
<stop stop-color="#ED1E2B"/>
<stop offset="1" stop-color="#F04D65"/>
</linearGradient>
</defs>
</svg>
