<svg width="36" height="44" viewBox="0 0 36 44" fill="none" xmlns="http://www.w3.org/2000/svg">
<path d="M21.2784 0C19.8429 6.89403 35.7143 16.8404 35.5116 26.0434C35.2738 36.8383 28.0271 43.5021 17.9563 43.3475C7.30996 42.5121 2.04892 37.6343 0.927393 27.3525C0.590608 17.8173 10.3737 9.40364 21.2784 0Z" fill="url(#paint0_linear_382_1323)"/>
<path d="M12.2904 31.4973C11.2104 31.4973 10.2437 31.264 9.39038 30.7973C8.55038 30.3173 7.88371 29.664 7.39038 28.8373C6.91038 28.0106 6.67038 27.064 6.67038 25.9973C6.67038 24.9306 6.91038 23.9906 7.39038 23.1773C7.88371 22.3506 8.55038 21.6973 9.39038 21.2173C10.2437 20.7373 11.2104 20.4973 12.2904 20.4973C13.357 20.4973 14.3104 20.7373 15.1504 21.2173C16.0037 21.6973 16.6704 22.3506 17.1504 23.1773C17.6304 23.9906 17.8704 24.9306 17.8704 25.9973C17.8704 27.064 17.6304 28.0106 17.1504 28.8373C16.6704 29.664 16.0037 30.3173 15.1504 30.7973C14.3104 31.264 13.357 31.4973 12.2904 31.4973ZM12.2904 29.0173C12.8104 29.0173 13.277 28.8906 13.6904 28.6373C14.1037 28.3706 14.4237 28.0106 14.6504 27.5573C14.8904 27.0906 15.0104 26.5706 15.0104 25.9973C15.0104 25.4106 14.8904 24.8906 14.6504 24.4373C14.4237 23.9706 14.1037 23.6106 13.6904 23.3573C13.277 23.0906 12.8104 22.9573 12.2904 22.9573C11.757 22.9573 11.2837 23.0906 10.8704 23.3573C10.457 23.624 10.1304 23.984 9.89038 24.4373C9.65038 24.8906 9.53704 25.4106 9.55038 25.9973C9.53704 26.5706 9.65038 27.0906 9.89038 27.5573C10.1304 28.0106 10.457 28.3706 10.8704 28.6373C11.2837 28.8906 11.757 29.0173 12.2904 29.0173ZM19.5271 26.8173V24.4773H29.5471V26.8173H19.5271ZM23.2271 30.4973V20.7573H25.8271V30.4973H23.2271Z" fill="white"/>
<defs>
<linearGradient id="paint0_linear_382_1323" x1="22.498" y1="43.4166" x2="9.11846" y2="8.76912" gradientUnits="userSpaceOnUse">
<stop stop-color="#ED1E2B"/>
<stop offset="1" stop-color="#F04D65"/>
</linearGradient>
</defs>
</svg>
