<svg width="36" height="44" viewBox="0 0 36 44" fill="none" xmlns="http://www.w3.org/2000/svg">
<path d="M20.8184 0C19.383 6.89403 35.2544 16.8404 35.0517 26.0434C34.8139 36.8383 27.5672 43.5021 17.4963 43.3475C6.85 42.5121 1.58896 37.6343 0.467432 27.3525C0.130647 17.8173 9.91376 9.40364 20.8184 0Z" fill="url(#paint0_linear_382_1314)"/>
<path d="M8.32604 31.2973V17.2973H14.406C15.3394 17.2973 16.126 17.4373 16.766 17.7173C17.4194 17.984 17.9127 18.3773 18.246 18.8973C18.5794 19.4173 18.746 20.0373 18.746 20.7573C18.746 21.5573 18.546 22.224 18.146 22.7573C17.746 23.2906 17.1727 23.6573 16.426 23.8573L16.406 23.4573C17.0194 23.604 17.5594 23.844 18.026 24.1773C18.4927 24.5106 18.8527 24.924 19.106 25.4173C19.3594 25.9106 19.486 26.4706 19.486 27.0973C19.486 27.7906 19.3727 28.404 19.146 28.9373C18.9194 29.4573 18.586 29.8906 18.146 30.2373C17.706 30.584 17.186 30.8506 16.586 31.0373C15.9994 31.2106 15.3394 31.2973 14.606 31.2973H8.32604ZM11.206 28.6973H14.486C14.9127 28.6973 15.2727 28.6373 15.566 28.5173C15.8727 28.384 16.106 28.184 16.266 27.9173C16.426 27.6506 16.506 27.3373 16.506 26.9773C16.506 26.6306 16.4194 26.3373 16.246 26.0973C16.0727 25.8573 15.826 25.6773 15.506 25.5573C15.1994 25.424 14.826 25.3573 14.386 25.3573H11.206V28.6973ZM11.206 22.9773H14.046C14.406 22.9773 14.7194 22.9106 14.986 22.7773C15.2527 22.644 15.4527 22.464 15.586 22.2373C15.7327 22.0106 15.806 21.744 15.806 21.4373C15.806 20.944 15.646 20.564 15.326 20.2973C15.006 20.0306 14.526 19.8973 13.886 19.8973H11.206V22.9773ZM21.4328 26.8773V24.2373H27.9728V26.8773H21.4328Z" fill="white"/>
<defs>
<linearGradient id="paint0_linear_382_1314" x1="22.038" y1="43.4166" x2="8.6585" y2="8.76912" gradientUnits="userSpaceOnUse">
<stop stop-color="#ED1E2B"/>
<stop offset="1" stop-color="#F04D65"/>
</linearGradient>
</defs>
</svg>
