<svg width="36" height="44" viewBox="0 0 36 44" fill="none" xmlns="http://www.w3.org/2000/svg">
<path d="M21.3047 0C19.8693 6.89403 35.7407 16.8404 35.538 26.0434C35.3002 36.8383 28.0535 43.5021 17.9827 43.3475C7.33633 42.5121 2.07529 37.6343 0.95376 27.3525C0.616975 17.8173 10.4001 9.40364 21.3047 0Z" fill="url(#paint0_linear_382_1317)"/>
<path d="M3.24519 30L7.62919 18.8H9.77319L14.1412 30H11.6772L9.42119 23.968C9.35719 23.7973 9.27719 23.5787 9.18119 23.312C9.09585 23.0453 9.00519 22.7627 8.90919 22.464C8.81319 22.1653 8.72252 21.8827 8.63719 21.616C8.55185 21.3387 8.48785 21.1093 8.44519 20.928L8.87719 20.912C8.81319 21.1573 8.73852 21.4133 8.65319 21.68C8.57852 21.936 8.49852 22.2027 8.41319 22.48C8.32785 22.7467 8.23719 23.008 8.14119 23.264C8.04519 23.52 7.95452 23.7707 7.86919 24.016L5.61319 30H3.24519ZM5.27719 27.648L6.06119 25.712H11.1972L11.9972 27.648H5.27719ZM15.7138 30V18.8H20.5778C21.3245 18.8 21.9538 18.912 22.4658 19.136C22.9885 19.3493 23.3831 19.664 23.6498 20.08C23.9165 20.496 24.0498 20.992 24.0498 21.568C24.0498 22.208 23.8898 22.7413 23.5698 23.168C23.2498 23.5947 22.7911 23.888 22.1938 24.048L22.1778 23.728C22.6685 23.8453 23.1005 24.0373 23.4738 24.304C23.8471 24.5707 24.1351 24.9013 24.3378 25.296C24.5405 25.6907 24.6418 26.1387 24.6418 26.64C24.6418 27.1947 24.5511 27.6853 24.3698 28.112C24.1885 28.528 23.9218 28.8747 23.5698 29.152C23.2178 29.4293 22.8018 29.6427 22.3218 29.792C21.8525 29.9307 21.3245 30 20.7378 30H15.7138ZM18.0178 27.92H20.6418C20.9831 27.92 21.2711 27.872 21.5058 27.776C21.7511 27.6693 21.9378 27.5093 22.0658 27.296C22.1938 27.0827 22.2578 26.832 22.2578 26.544C22.2578 26.2667 22.1885 26.032 22.0498 25.84C21.9111 25.648 21.7138 25.504 21.4578 25.408C21.2125 25.3013 20.9138 25.248 20.5618 25.248H18.0178V27.92ZM18.0178 23.344H20.2898C20.5778 23.344 20.8285 23.2907 21.0418 23.184C21.2551 23.0773 21.4151 22.9333 21.5218 22.752C21.6391 22.5707 21.6978 22.3573 21.6978 22.112C21.6978 21.7173 21.5698 21.4133 21.3138 21.2C21.0578 20.9867 20.6738 20.88 20.1618 20.88H18.0178V23.344ZM26.1192 26.416V24.544H34.1352V26.416H26.1192ZM29.0792 29.36V21.568H31.1592V29.36H29.0792Z" fill="white"/>
<defs>
<linearGradient id="paint0_linear_382_1317" x1="22.5244" y1="43.4166" x2="9.14483" y2="8.76912" gradientUnits="userSpaceOnUse">
<stop stop-color="#ED1E2B"/>
<stop offset="1" stop-color="#F04D65"/>
</linearGradient>
</defs>
</svg>
