<svg width="83" height="104" viewBox="0 0 83 104" fill="none" xmlns="http://www.w3.org/2000/svg">
<path d="M15.0831 33.3357C23.6288 23.1928 35.2257 13.069 47.6237 2.37206C47.6787 6.15823 49.4215 10.1397 51.9466 14.1662C54.9195 18.9068 59.1176 23.9226 63.3939 29.0318C63.6091 29.2889 63.8244 29.5463 64.0399 29.8038C68.5609 35.2086 73.1196 40.7238 76.5229 46.2523C79.9305 51.7878 82.1045 57.2203 81.9891 62.4569C81.7089 75.181 77.3042 85.388 70.0823 92.367C62.8657 99.3409 52.7578 103.167 40.9198 102.993C28.2928 101.997 19.0144 98.617 12.5614 92.5742C6.11546 86.5381 2.35134 77.7164 1.01838 65.5476C0.6407 54.4911 6.11673 43.9779 15.0831 33.3357Z" fill="url(#paint0_linear_219_542)" stroke="white" stroke-width="2"/>
<defs>
<linearGradient id="paint0_linear_219_542" x1="51.7688" y1="104.158" x2="19.6709" y2="21.0374" gradientUnits="userSpaceOnUse">
<stop stop-color="#ED1E2B"/>
<stop offset="1" stop-color="#F04D65"/>
</linearGradient>
</defs>
</svg>
