<svg width="36" height="44" viewBox="0 0 36 44" fill="none" xmlns="http://www.w3.org/2000/svg">
<path d="M20.792 0C19.3566 6.89403 35.228 16.8404 35.0253 26.0434C34.7875 36.8383 27.5408 43.5021 17.47 43.3475C6.82363 42.5121 1.56259 37.6343 0.441065 27.3525C0.10428 17.8173 9.88739 9.40364 20.792 0Z" fill="url(#paint0_linear_382_1320)"/>
<path d="M3.55769 30L7.94169 18.8H10.0857L14.4537 30H11.9897L9.73369 23.968C9.66969 23.7973 9.58969 23.5787 9.49369 23.312C9.40835 23.0453 9.31769 22.7627 9.22169 22.464C9.12569 22.1653 9.03502 21.8827 8.94969 21.616C8.86435 21.3387 8.80035 21.1093 8.75769 20.928L9.18969 20.912C9.12569 21.1573 9.05102 21.4133 8.96569 21.68C8.89102 21.936 8.81102 22.2027 8.72569 22.48C8.64035 22.7467 8.54969 23.008 8.45369 23.264C8.35769 23.52 8.26702 23.7707 8.18169 24.016L5.92569 30H3.55769ZM5.58969 27.648L6.37369 25.712H11.5097L12.3097 27.648H5.58969ZM16.0263 30V18.8H20.8903C21.637 18.8 22.2663 18.912 22.7783 19.136C23.301 19.3493 23.6956 19.664 23.9623 20.08C24.229 20.496 24.3623 20.992 24.3623 21.568C24.3623 22.208 24.2023 22.7413 23.8823 23.168C23.5623 23.5947 23.1036 23.888 22.5063 24.048L22.4903 23.728C22.981 23.8453 23.413 24.0373 23.7863 24.304C24.1596 24.5707 24.4476 24.9013 24.6503 25.296C24.853 25.6907 24.9543 26.1387 24.9543 26.64C24.9543 27.1947 24.8636 27.6853 24.6823 28.112C24.501 28.528 24.2343 28.8747 23.8823 29.152C23.5303 29.4293 23.1143 29.6427 22.6343 29.792C22.165 29.9307 21.637 30 21.0503 30H16.0263ZM18.3303 27.92H20.9543C21.2956 27.92 21.5836 27.872 21.8183 27.776C22.0636 27.6693 22.2503 27.5093 22.3783 27.296C22.5063 27.0827 22.5703 26.832 22.5703 26.544C22.5703 26.2667 22.501 26.032 22.3623 25.84C22.2236 25.648 22.0263 25.504 21.7703 25.408C21.525 25.3013 21.2263 25.248 20.8743 25.248H18.3303V27.92ZM18.3303 23.344H20.6023C20.8903 23.344 21.141 23.2907 21.3543 23.184C21.5676 23.0773 21.7276 22.9333 21.8343 22.752C21.9516 22.5707 22.0103 22.3573 22.0103 22.112C22.0103 21.7173 21.8823 21.4133 21.6263 21.2C21.3703 20.9867 20.9863 20.88 20.4743 20.88H18.3303V23.344ZM26.5117 26.464V24.352H31.7437V26.464H26.5117Z" fill="white"/>
<defs>
<linearGradient id="paint0_linear_382_1320" x1="22.0117" y1="43.4166" x2="8.63213" y2="8.76912" gradientUnits="userSpaceOnUse">
<stop stop-color="#ED1E2B"/>
<stop offset="1" stop-color="#F04D65"/>
</linearGradient>
</defs>
</svg>
