<svg width="1369" height="186" viewBox="0 0 1369 186" fill="none" xmlns="http://www.w3.org/2000/svg">
<path d="M16.3612 61.9197C4.76118 53.9197 34.1945 21.5863 50.3612 6.41966C464.028 4.58633 1313.16 -2.78032 1350.36 22.4197C1396.86 53.9197 1313.86 48.4197 1337.86 83.4197C1357.06 111.42 1354.19 123.42 1350.36 125.92C1349.86 144.42 1335.86 181.42 1283.86 181.42C1218.86 181.42 1229.36 154.42 1166.36 154.42C1103.36 154.42 1081.86 181.42 1000.86 181.42C919.861 181.42 917.361 154.42 839.361 154.42C761.361 154.42 714.361 181.42 640.861 181.42C567.361 181.42 533.861 154.42 498.861 154.42C463.861 154.42 401.861 137.42 334.361 167.92C266.861 198.42 232.861 160.92 187.861 154.42C142.861 147.92 111.361 154.42 79.3611 167.92C47.3611 181.42 50.3612 142.92 16.3612 120.42C-17.6388 97.9197 30.8612 71.9197 16.3612 61.9197Z" stroke="#ED1E2B" stroke-width="8"/>
</svg>
