<svg width="35" height="44" viewBox="0 0 35 44" fill="none" xmlns="http://www.w3.org/2000/svg">
<path d="M20.3594 0C18.924 6.89403 34.7954 16.8404 34.5927 26.0434C34.3549 36.8383 27.1082 43.5021 17.0373 43.3475C6.39101 42.5121 1.12997 37.6343 0.00844795 27.3525C-0.328337 17.8173 9.45478 9.40364 20.3594 0Z" fill="url(#paint0_linear_382_1305)"/>
<path d="M4.5469 31.2973L10.0269 17.2973H12.7069L18.1669 31.2973H15.0869L12.2669 23.7573C12.1869 23.544 12.0869 23.2706 11.9669 22.9373C11.8602 22.604 11.7469 22.2506 11.6269 21.8773C11.5069 21.504 11.3936 21.1506 11.2869 20.8173C11.1802 20.4706 11.1002 20.184 11.0469 19.9573L11.5869 19.9373C11.5069 20.244 11.4136 20.564 11.3069 20.8973C11.2136 21.2173 11.1136 21.5506 11.0069 21.8973C10.9002 22.2306 10.7869 22.5573 10.6669 22.8773C10.5469 23.1973 10.4336 23.5106 10.3269 23.8173L7.5069 31.2973H4.5469ZM7.0869 28.3573L8.0669 25.9373H14.4869L15.4869 28.3573H7.0869ZM19.2527 26.8173V24.4773H29.2727V26.8173H19.2527ZM22.9527 30.4973V20.7573H25.5527V30.4973H22.9527Z" fill="white"/>
<defs>
<linearGradient id="paint0_linear_382_1305" x1="21.579" y1="43.4166" x2="8.19951" y2="8.76912" gradientUnits="userSpaceOnUse">
<stop stop-color="#ED1E2B"/>
<stop offset="1" stop-color="#F04D65"/>
</linearGradient>
</defs>
</svg>
