<svg width="36" height="44" viewBox="0 0 36 44" fill="none" xmlns="http://www.w3.org/2000/svg">
<path d="M21.3321 0C19.8966 6.89403 35.7681 16.8404 35.5653 26.0434C35.3275 36.8383 28.0808 43.5021 18.01 43.3475C7.36367 42.5121 2.10263 37.6343 0.981104 27.3525C0.644319 17.8173 10.4274 9.40364 21.3321 0Z" fill="url(#paint0_linear_382_1311)"/>
<path d="M7.19909 31.2973V17.2973H13.2791C14.2124 17.2973 14.9991 17.4373 15.6391 17.7173C16.2924 17.984 16.7858 18.3773 17.1191 18.8973C17.4524 19.4173 17.6191 20.0373 17.6191 20.7573C17.6191 21.5573 17.4191 22.224 17.0191 22.7573C16.6191 23.2906 16.0458 23.6573 15.2991 23.8573L15.2791 23.4573C15.8924 23.604 16.4324 23.844 16.8991 24.1773C17.3658 24.5106 17.7258 24.924 17.9791 25.4173C18.2324 25.9106 18.3591 26.4706 18.3591 27.0973C18.3591 27.7906 18.2458 28.404 18.0191 28.9373C17.7924 29.4573 17.4591 29.8906 17.0191 30.2373C16.5791 30.584 16.0591 30.8506 15.4591 31.0373C14.8724 31.2106 14.2124 31.2973 13.4791 31.2973H7.19909ZM10.0791 28.6973H13.3591C13.7858 28.6973 14.1458 28.6373 14.4391 28.5173C14.7458 28.384 14.9791 28.184 15.1391 27.9173C15.2991 27.6506 15.3791 27.3373 15.3791 26.9773C15.3791 26.6306 15.2924 26.3373 15.1191 26.0973C14.9458 25.8573 14.6991 25.6773 14.3791 25.5573C14.0724 25.424 13.6991 25.3573 13.2591 25.3573H10.0791V28.6973ZM10.0791 22.9773H12.9191C13.2791 22.9773 13.5924 22.9106 13.8591 22.7773C14.1258 22.644 14.3258 22.464 14.4591 22.2373C14.6058 22.0106 14.6791 21.744 14.6791 21.4373C14.6791 20.944 14.5191 20.564 14.1991 20.2973C13.8791 20.0306 13.3991 19.8973 12.7591 19.8973H10.0791V22.9773ZM20.2058 26.8173V24.4773H30.2258V26.8173H20.2058ZM23.9058 30.4973V20.7573H26.5058V30.4973H23.9058Z" fill="white"/>
<defs>
<linearGradient id="paint0_linear_382_1311" x1="22.5517" y1="43.4166" x2="9.17217" y2="8.76912" gradientUnits="userSpaceOnUse">
<stop stop-color="#ED1E2B"/>
<stop offset="1" stop-color="#F04D65"/>
</linearGradient>
</defs>
</svg>
