<svg xmlns="http://www.w3.org/2000/svg" width="250" height="123" viewBox="0 0 250 123" fill="none">
  <rect x="50.6992" y="94.4058" width="78.6715" height="15.7343" rx="7.86715" fill="#F38596"/>
  <rect x="150.351" y="68.1819" width="52.4477" height="15.7343" rx="7.86715" fill="#F38596"/>
  <rect x="131.12" y="66.4338" width="24.4756" height="15.7343" rx="7.86715" fill="white"/>
  <rect x="34.9648" y="94.4058" width="24.4756" height="15.7343" rx="7.86715" fill="white"/>
  <rect x="122.378" y="94.4058" width="24.4756" height="15.7343" rx="4.5" fill="white"/>
  <rect x="197.553" y="66.4338" width="24.4756" height="15.7343" rx="7.86715" fill="white"/>
  <rect x="89.1602" y="54.1959" width="160.839" height="15.7343" rx="7.86715" fill="#F38596"/>
  <rect x="167.832" y="12.2378" width="24.4756" height="15.7343" rx="7.86715" fill="#F38596"/>
  <rect x="146.854" y="12.2378" width="24.4756" height="15.7343" rx="7.86715" fill="white"/>
  <rect x="188.812" y="12.2378" width="24.4756" height="15.7343" rx="7.86715" fill="white"/>
  <rect x="162.588" y="24.4756" width="66.4337" height="15.7343" rx="7.86715" fill="#F38596"/>
  <rect x="152.098" width="55.9442" height="15.7343" rx="7.86715" fill="#F38596"/>
  <rect x="33.2168" y="80.4197" width="204.546" height="15.7343" rx="7.86715" fill="#F38596"/>
  <rect y="106.644" width="150.35" height="15.7343" rx="7.86715" fill="#F38596"/>
  <path d="M183.724 51.3512C184.913 55.0654 185.662 58.9765 185.909 63.0231L184.911 63.0842C184.97 64.0484 185 65.0207 185 66C185 66.9793 184.97 67.9516 184.911 68.9158L185.909 68.9769C185.492 75.7907 183.654 82.2202 180.687 87.9728L179.798 87.5144C178.007 90.9873 175.795 94.2085 173.23 97.1107L173.98 97.7729C172.665 99.2602 171.26 100.665 169.773 101.98L169.111 101.23C164.297 105.485 158.606 108.767 152.344 110.771L152.649 111.724C148.935 112.913 145.023 113.662 140.977 113.909L140.916 112.911C139.952 112.97 138.979 113 138 113C137.021 113 136.048 112.97 135.084 112.911L135.023 113.909C128.209 113.492 121.78 111.654 116.027 108.687L116.486 107.798C113.013 106.007 109.792 103.795 106.889 101.23L106.227 101.98C104.74 100.665 103.335 99.2602 102.02 97.7729L102.77 97.1107C98.5154 92.2969 95.2332 86.6056 93.2288 80.344L92.2764 80.6489C91.0874 76.9346 90.3384 73.0235 90.0908 68.9769L91.0889 68.9158C91.0299 67.9516 91 66.9793 91 66C91 65.0207 91.0299 64.0484 91.0889 63.0842L90.0908 63.0231C90.5077 56.2093 92.3461 49.7798 95.3132 44.0272L96.202 44.4856C97.9932 41.0127 100.205 37.7915 102.77 34.8893L102.02 34.2271C103.335 32.7398 104.74 31.3347 106.227 30.0203L106.889 30.7697C111.703 26.5154 117.394 23.2332 123.656 21.2288L123.351 20.2764C127.065 19.0874 130.977 18.3384 135.023 18.0908L135.084 19.0889C136.048 19.0299 137.021 19 138 19C138.979 19 139.952 19.0299 140.916 19.0889L140.977 18.0908C147.791 18.5077 154.22 20.3461 159.973 23.3132L159.514 24.202C162.987 25.9932 166.208 28.2048 169.111 30.7697L169.773 30.0203C171.26 31.3347 172.665 32.7398 173.98 34.2271L173.23 34.8893C177.485 39.7031 180.767 45.3944 182.771 51.656L183.724 51.3512Z" stroke="#A21D21" stroke-width="2" stroke-dasharray="9 18 30 9 18 30"/>
  <path d="M182 66C182 90.3005 162.301 110 138 110C113.699 110 94 90.3005 94 66C94 41.6995 113.699 22 138 22C162.301 22 182 41.6995 182 66Z" fill="#F38596"/>
  <path fill-rule="evenodd" clip-rule="evenodd" d="M142.526 81.6378C136.192 88.6412 125.262 88.8077 118.718 82.0003L112 75.0115L118.706 68.5445L125.424 75.5334C128.228 78.4508 132.913 78.3795 135.627 75.378L163.101 45L170 51.2598L142.526 81.6378Z" fill="#A21D21"/>
  <path fill-rule="evenodd" clip-rule="evenodd" d="M143.526 83.6378C137.192 90.6412 126.262 90.8077 119.718 84.0003L113 77.0115L119.706 70.5445L126.424 77.5334C129.228 80.4508 133.913 80.3795 136.627 77.378L164.101 47L171 53.2598L143.526 83.6378Z" fill="white"/>
</svg>