<svg width="513" height="474" viewBox="0 0 513 474" fill="none" xmlns="http://www.w3.org/2000/svg">
<path d="M341.684 36.0085H76.7292C71.9076 36.0085 67.9989 39.9164 67.9989 44.737V419.414C67.9989 424.235 71.9076 428.143 76.7292 428.143H341.684C346.505 428.143 350.414 424.235 350.414 419.414V44.737C350.414 39.9164 346.505 36.0085 341.684 36.0085Z" fill="#A21D21" stroke="#231F20" stroke-width="0.25" stroke-miterlimit="10"/>
<path d="M339.131 55.9971H85.9614V406.964H339.131V55.9971Z" fill="white"/>
<path d="M266.572 25.238H155.366V63.8839H266.572V25.238Z" fill="#FAAF3B"/>
<path d="M212.824 49.858C226.595 49.858 237.758 38.6969 237.758 24.929C237.758 11.1611 226.595 0 212.824 0C199.054 0 187.89 11.1611 187.89 24.929C187.89 38.6969 199.054 49.858 212.824 49.858Z" fill="#FAAF3B"/>
<path d="M229.752 24.929H195.887C195.887 24.929 195.887 7.99561 212.824 7.99561C229.761 7.99561 229.761 24.929 229.761 24.929H229.752Z" fill="white"/>
<rect x="102.524" y="75.7142" width="217.679" height="52.8422" fill="#D9D9D9"/>
<rect x="110.911" y="83.3125" width="37.6458" height="37.6458" fill="#D9D9D9" stroke="black"/>
<rect x="104.101" y="145.908" width="217.679" height="52.8422" fill="#D9D9D9"/>
<rect x="104.101" y="216.101" width="219.256" height="52.8422" fill="#D9D9D9"/>
<rect x="104.101" y="286.295" width="220.833" height="52.8422" fill="#D9D9D9"/>
<path d="M120.664 104.336L131.075 115.149L155.366 88.3333" stroke="black" stroke-width="4"/>
<rect x="110.911" y="153.506" width="37.6458" height="37.6458" fill="#D9D9D9" stroke="black"/>
<rect x="110.911" y="223.699" width="37.6458" height="37.6458" fill="#D9D9D9" stroke="black"/>
<rect x="110.911" y="293.893" width="37.6458" height="37.6458" fill="#D9D9D9" stroke="black"/>
<path d="M120.664 174.529L131.075 185.342L155.366 158.527" stroke="black" stroke-width="4"/>
<path d="M120.664 244.723L131.075 255.536L155.366 228.72" stroke="black" stroke-width="4"/>
<path d="M120.664 314.916L131.075 325.729L155.366 298.914" stroke="black" stroke-width="4"/>
<rect x="177.45" y="88.3333" width="123.824" height="3.94345" fill="black"/>
<rect x="177.45" y="160.893" width="123.824" height="3.94345" fill="black"/>
<rect x="177.45" y="233.452" width="123.824" height="3.94345" fill="black"/>
<rect x="177.45" y="301.28" width="123.824" height="3.94345" fill="black"/>
<rect x="177.45" y="97.7976" width="123.824" height="3.94345" fill="black"/>
<rect x="177.45" y="170.357" width="123.824" height="3.94345" fill="black"/>
<rect x="177.45" y="242.917" width="123.824" height="3.94345" fill="black"/>
<rect x="177.45" y="310.744" width="123.824" height="3.94345" fill="black"/>
<rect x="177.45" y="107.262" width="80.4464" height="3.94345" fill="black"/>
<rect x="177.45" y="179.821" width="80.4464" height="3.94345" fill="black"/>
<rect x="177.45" y="252.381" width="80.4464" height="3.94345" fill="black"/>
<rect x="177.45" y="320.208" width="80.4464" height="3.94345" fill="black"/>
<path d="M489.451 449.207C489.451 449.207 478.969 460.477 477.255 461.895C475.542 463.314 459.842 468.092 461.727 472.642C463.612 477.192 492.317 468.853 492.317 468.853C492.317 468.853 512.643 463.18 512.643 460.449C512.643 457.717 503.008 445.8 503.008 445.8L495.363 445.99L489.442 449.207H489.451Z" fill="#A21E22"/>
<path d="M404.557 452.672C404.557 452.672 389.6 457.726 387.42 458.24C385.24 458.754 369.341 458.678 370.388 461.191C374.52 470.281 383.507 472.499 395.379 471.89C406.737 470.909 417.591 469.824 424.198 467.854C423.541 460.363 422.475 454.947 420.818 452.577L404.557 452.681V452.672Z" fill="#A21E22"/>
<path d="M485.214 442.849L489.042 450.264L503.008 445.79L498.971 436.186L485.214 442.849Z" fill="#FABFAC"/>
<path d="M438.583 191.236L405.138 205.019L416.048 226.407L439.411 218.336L438.583 191.236Z" fill="#EBF6F6"/>
<path d="M403.681 442.411V453.433L420.818 452.558V441.212L403.681 442.411Z" fill="#FABFAC"/>
<path d="M435.042 299.414L400.73 357.182C395.379 363.074 400.835 416.654 402.805 444.81H421.58C429.901 421.879 434.137 397.788 430.205 371.365C439.669 364.949 455.101 350.405 469.23 337.641L450.836 288.097L435.042 299.414Z" fill="#414042"/>
<path d="M437.86 301.689C440.23 326.58 443.315 366.263 444.61 369.071L485.319 445.79L501.256 440.003C495.468 407.373 481.121 370.66 481.168 361.427L489.461 292.894L437.174 297.806L437.841 301.68L437.86 301.689Z" fill="#58595B"/>
<path d="M405.385 205.514C405.385 205.514 304.935 238.563 304.64 240.523C304.345 242.484 313.913 242.389 324.138 240.523C331.288 250.089 338.18 249.937 344.807 239.505L415.525 225.398L405.376 205.514H405.385Z" fill="#FABFAC"/>
<path d="M439.411 192.436L438.536 177.082C425.397 179.928 420.97 173.922 424.35 159.987C424.35 159.987 417.724 160.282 417.143 159.264C416.562 158.245 419.714 154.419 421.799 152.496V141.655L433.947 140.56L461.813 148.784L462.908 169.953L466.983 182.537L439.402 192.426L439.411 192.436Z" fill="#FABFAC"/>
<path d="M439.116 190.732C443.296 187.22 467.535 181.708 467.535 181.708C487.338 203.715 488.766 252.612 492.859 297.606L471.029 300.766C456.586 302.936 436.098 303.926 434.68 299.671C436.203 293.189 436.079 273.857 436.098 255.582C432.157 247.415 430.224 235.184 428.891 221.753C428.215 208.912 434.927 194.244 439.116 190.732Z" fill="#A21D21"/>
<path d="M350.414 225.351L362.2 204.838L407.061 219.678L405.138 237.173L350.414 225.351Z" fill="#A21E22"/>
<path d="M436.051 274.676C446.38 271.049 457.3 269.469 464.146 253.611H467.744C479.436 227.492 484.339 200.679 463.051 197.385L436.051 264.034V274.676Z" fill="#631316"/>
<path d="M437.898 239.153C437.041 238.791 436.831 242.627 436.803 244.007C435.48 242.951 389.524 234.622 386.535 232.518C384.345 230.976 377.957 216.051 373.768 217.213C371.369 217.879 372.768 222.048 373.768 226.702C369.455 229.606 364.514 228.454 357.05 226.769C358.392 234.251 363.781 238.344 372.349 238.486L384.355 238.648C407.727 252.031 431.119 265.452 446.676 265.824C451.493 265.747 455.777 257.733 459.919 247.776L437.888 239.134L437.898 239.153Z" fill="#FABFAC" stroke="#F8A692" stroke-width="0.25" stroke-miterlimit="10"/>
<path d="M436.422 239.866L460.29 250.775L475.208 214.033C477.008 197.014 453.74 191.265 445.666 205.229L436.422 239.857V239.866Z" fill="white"/>
<path d="M425.731 138.923C435.508 144.767 445.105 150.659 442.03 159.407H445.923C446.247 145.11 460.404 149.983 453.492 161.701C449.198 169.525 465.831 174.217 468.373 166.869C470.353 159.844 470.182 154.4 468.373 150.174L446.685 137.657L425.731 138.932V138.923Z" fill="#3C2415"/>
<path d="M421.799 141.655C411.012 143.415 403.548 141.74 398.988 137.067C404.786 135.382 412.602 134.116 421.256 133.031C440.126 100.125 485.472 126.377 468.297 150.116C463.936 150.316 445.971 144.681 431.567 140.912L421.799 141.645V141.655Z" fill="#D1D3D4"/>
<path d="M427.359 195.862L424.436 223.514L428.901 221.753C428.758 210.55 431.9 200.355 438.583 191.236L427.359 195.862Z" fill="#E6E7E8"/>
<path d="M438.536 177.082C442.467 177.13 445.152 175.207 446.99 171.933C447.275 178.605 444.267 182.927 439.031 185.659L438.545 177.082H438.536Z" fill="#F8A692"/>
<path d="M421.799 141.655C435.089 145.015 441.23 150.64 439.469 159.349L442.03 159.407C445.076 150.983 434.118 144.263 429.148 140.998L421.799 141.655Z" fill="#F8A692"/>
<path d="M422.465 131.051C441.992 102.543 481.14 124.988 470.144 147.099C468.477 122.294 450.579 111.966 422.465 131.051Z" fill="#E6E7E8"/>
<path d="M431.567 140.912C427.121 138.285 423.684 135.658 421.256 133.031L431.567 140.912Z" fill="#808285"/>
<path d="M49.7387 430.408L49.0151 448.189C64.4288 449.645 78.9284 450.606 89.2582 449.321C98.5025 447.646 99.1499 440.374 86.5639 439.86C78.8999 438.784 69.9316 435.243 60.6587 431.131L49.7482 430.408H49.7387Z" fill="#A21E22"/>
<path d="M11.3902 428.152C11.3902 428.152 9.93356 446.161 11.3902 447.218C12.8468 448.274 46.635 448.522 53.9562 448.017C48.4058 441.335 38.9043 435.11 26.3088 429.247L11.3902 428.152Z" fill="#A21E22"/>
<path d="M3.96423 291.742C10.8761 317.423 13.7703 344.827 11.314 365.882C8.91488 387.146 9.07673 409.172 11.2379 431.798H29.7933C34.2203 392.248 38.4093 354.117 40.0563 330.959L3.96423 291.742Z" fill="#58595B"/>
<path d="M4.91627 217.46C-2.99524 230.1 -1.12922 240.828 8.86727 249.947L20.7869 229.577L4.92579 217.241" fill="#FABFAC"/>
<path d="M3.52625 268.241C0.651067 275.523 1.41271 289.553 4.06892 294.103C6.72513 298.653 36.5718 338.688 51.8807 353.793C44.569 378.78 42.7315 404.841 49.5863 432.15L65.9615 432.911C69.8268 398.673 74.33 362.874 72.7305 341.895C65.3522 318.261 58.2975 295.673 52.9756 278.597L3.52625 268.232V268.241Z" fill="#6D6E71"/>
<path d="M13.2848 230.338L4.25944 217.822L14.4463 192.797C23.0338 185.373 47.4824 189.295 56.0698 202.687C58.8308 212.958 62.42 226.902 68.0085 239.933L50.11 252.012C50.3004 260.293 52.1664 270.735 54.3276 281.548C35.1914 282.271 7.4488 278.854 2.37439 269.031C4.7069 257.971 12.8564 241.323 13.2848 230.329V230.338Z" fill="#A21D21"/>
<path d="M13.2847 230.338L13.4656 211.197L8.28644 207.913L4.25928 217.822L13.2847 230.338Z" fill="#EBF6F6"/>
<path d="M42.6079 213.529C32.7828 231.462 48.6153 275.77 35.7722 275.152C25.0236 274.047 14.1226 270.84 3.11699 265.985L2.37439 269.041C8.10571 278.721 35.1914 281.653 54.3276 281.557L50.11 252.022L54.9083 230.852L42.6079 213.538V213.529Z" fill="#631316"/>
<path d="M67.9989 239.943C67.9989 239.943 112.022 223.352 113.621 222.191C115.22 221.029 120.676 214.699 120.676 214.699C122.97 211.52 124.769 213.576 123.075 217.174C121.38 220.772 116.02 225.398 116.02 225.398C120.171 236.24 115.725 240.752 103.434 235.374C83.4411 248.29 60.1445 266.176 53.9562 258.351C52.5472 256.219 51.4142 253.44 50.5479 250.051L65.1618 239.8L67.9989 239.943Z" fill="#FABFAC"/>
<path d="M40.9321 215.347C42.1412 202.763 54.4702 197.157 58.0595 206.837L68.0083 239.933L50.1099 252.012C47.863 237.306 45.8256 221.972 40.9416 215.347H40.9321Z" fill="#EBF6F6"/>
<path d="M26.9943 179.519V195.339C33.0398 199.965 39.0757 199.698 45.1117 194.577V185.849C52.5567 186.115 55.6318 182.565 56.6791 177.225C57.0694 172.228 58.012 167.497 59.2972 162.928H26.9943V179.519Z" fill="#FABFAC"/>
<path d="M56.3553 161.948C51.4713 164.404 48.282 167.983 46.9682 172.809C45.7686 165.003 39.9325 165.118 39.8183 175.759C37.9999 180.214 37.4762 183.783 33.9251 184.65C30.374 185.516 24.2047 180.947 25.0806 173.304C19.9871 174.17 13.9892 180.642 13.8369 182.194C13.6846 183.745 16.217 202.525 13.8369 217.241C-3.95684 195.291 -2.64301 168.554 14.332 162.928C19.0732 161.919 23.2241 162.414 26.9942 163.852L28.9078 161.453L56.3553 161.948Z" fill="#3C2415"/>
<path d="M61.049 163.48C61.049 163.48 27.0133 164.061 26.2612 163.595C25.5091 163.128 25.0235 143.939 41.8367 143.12C53.404 142.625 59.6971 150.174 61.049 158.398C65.8568 153.334 73.8731 149.726 75.8438 152.23C77.8145 154.733 71.3882 160.663 61.049 163.471V163.48Z" fill="#BCBEC0"/>
<path d="M45.1117 185.849C43.7503 185.763 42.189 184.84 40.58 183.717C40.0564 187.895 41.5606 190.875 45.1117 192.636V185.839V185.849Z" fill="#F8A692"/>
</svg>
