<svg width="647" height="586" viewBox="0 0 647 586" fill="none" xmlns="http://www.w3.org/2000/svg">
<path d="M237.332 92.2076C237.332 92.2076 228.836 68.356 226.322 63.8395C223.807 59.3231 204.862 39.6094 191.423 30.9061C186.54 27.1709 180.095 36.0207 183.867 40.3296C191.081 47.1409 197.648 53.6592 202.25 59.3597C205.924 63.8761 200.224 67.648 196.464 65.048L138.251 24.1803C130.878 20.2376 122.419 29.478 129.389 35.3738L164.837 64.3888C167.474 66.6959 165.508 68.1851 163.067 66.6226L119.221 39.3775C111.506 35.2761 105.696 46.3963 110.92 50.7541C110.92 50.7541 156.549 80.7823 155.706 81.6367C154.864 82.4912 112.605 62.1428 112.605 62.1428C107.149 60.0433 101.18 68.8564 105.891 73.1532L150.677 99.0922C153.973 101.155 152.948 102.62 150.58 101.887L120.539 88.448C112.422 86.5804 109.529 98.0546 114.57 100.948C136.811 112.397 165.093 126.996 176.519 130.243C183.086 132.111 194.389 134.357 202.079 134.162C204.984 138.007 208.561 142.023 212.345 146.1L237.344 92.171L237.332 92.2076Z" fill="#FABFAC"/>
<path d="M297.596 50.217L286.024 62.2527C281.031 67.1597 282.154 73.6658 288.538 75.7776C294.459 77.34 306.201 78.4508 316.15 79.5982L304.676 50.2048H297.584L297.596 50.217Z" fill="#231F20"/>
<path d="M385.3 78.1213C370.628 73.7635 347.948 58.8471 319.8 36.6921L248.574 11.4977C241.616 8.70238 238.345 17.186 244.229 21.0188L291.248 49.0085C301.343 55.063 306.763 64.3766 308.325 75.741L289.991 76.5832C281.739 78.1213 283.412 90.9992 288.868 92.2565L371.861 106.111L385.3 78.1213Z" fill="#FABFAC"/>
<path d="M647.742 220.304L383.896 74.4715L341.356 153.253L646.863 317.993L647.742 220.304Z" fill="#231F20"/>
<path d="M385.3 106.111L358.433 154.73" stroke="#F7FCFE" stroke-width="2" stroke-miterlimit="10"/>
<path d="M647.742 389.426V304.48L239.993 82.9062L197.673 160.772C266.64 201.493 343.859 236.978 425.826 269.472C441.585 367.539 476.52 468.342 647.742 585V389.426Z" fill="#BB3035" stroke="#231F20" stroke-width="0.25" stroke-miterlimit="10"/>
<path d="M610.622 328.625C602.785 358.018 545.121 359.41 545.121 315.185L551.005 276.564C511.821 260.659 500.909 227.164 518.816 204.252C533.097 188.75 545.878 173.687 556.327 159.295L644.202 172.722C649.451 187.883 647.18 202.604 638.599 216.947C638.599 216.947 624.391 242.703 622.926 247.451C621.461 252.199 614.296 306.238 610.609 328.625H610.622Z" fill="#FABFAC"/>
<path d="M647.742 390.195L338 221.707L311.133 276.002L647.742 474.164V390.195Z" fill="#F7FCFE" stroke="#231F20" stroke-miterlimit="10"/>
<path d="M433.321 347.936L647.742 523.808V474.164L433.321 347.936Z" fill="#231F20" stroke="#231F20" stroke-width="0.25" stroke-miterlimit="10"/>
<path d="M277.968 181.157L265.871 172.258L243.948 171.599C240.676 171.599 240.676 177.947 243.948 178.313C243.948 178.313 257.168 179.9 260.964 181.853C264.76 183.806 284.169 201.542 284.169 201.542L282.765 181.951L277.968 181.145V181.157Z" fill="#F8A692" stroke="#231F20" stroke-miterlimit="10"/>
<path d="M280.482 198.222L270.961 189.812H251.418C247.781 189.812 247.5 195.121 251.418 196.049L269.801 199.223L279.115 207.792L286.976 206.498L280.494 198.222H280.482Z" fill="#F8A692" stroke="#231F20" stroke-miterlimit="10"/>
<path d="M275.307 213.309L269.057 206.779L259.633 205.009C256.972 202.665 257.949 199.504 260.695 197.648L269.814 199.223L280.922 209.11L275.319 213.309H275.307Z" fill="#F8A692" stroke="#231F20" stroke-miterlimit="10"/>
<path d="M333.52 230.752C333.52 230.752 320.178 226.553 316.907 224.136C313.635 221.72 281.08 165.545 281.08 165.545L257.936 153.875C252.614 151.178 248.232 157.989 253.457 161.065L276.967 176.738C284.767 210.27 281.495 219.925 247.854 211.075C242.068 209.867 238.992 220.877 245.242 223.392L276.686 233.194C282.74 249.209 295.691 253.603 313.171 250.356L321.386 255.251L333.508 230.752H333.52Z" fill="#FABFAC" stroke="#231F20" stroke-miterlimit="10"/>
<path d="M551.005 276.564L580.667 290.626L547.794 297.596L551.005 276.564Z" fill="#F8A692"/>
<path d="M564.786 253.335C564.53 248.122 562.076 244.631 555.765 244.168C551.359 244.522 548.002 246.682 547.233 253.335" stroke="#231F20" stroke-miterlimit="10"/>
<path d="M563.858 228.787L540.373 220.67" stroke="#231F20" stroke-miterlimit="10"/>
<path d="M563.699 229.263C562.601 236.233 557.413 238.967 548.661 238.015C540.678 235.611 537.931 229.983 540.177 221.256L563.699 229.263Z" fill="white"/>
<path d="M615.309 235.562C622.108 235.562 627.625 230.044 627.625 223.245C627.625 216.446 622.108 210.929 615.309 210.929" stroke="#231F20" stroke-miterlimit="10"/>
<path d="M599.001 192.643C596.352 189.494 593.593 186.784 589.297 185.649C585 184.514 580.74 185.674 577.163 187.334" stroke="#231F20" stroke-miterlimit="10"/>
<path d="M580.349 203.239C578.859 203.239 577.652 202.031 577.652 200.541C577.652 199.051 578.859 197.844 580.349 197.844C581.839 197.844 583.047 199.051 583.047 200.541C583.047 202.031 581.839 203.239 580.349 203.239Z" fill="#231F20" stroke="#231F20" stroke-miterlimit="10"/>
<path d="M550.333 186.65C548.843 186.65 547.636 185.442 547.636 183.952C547.636 182.463 548.843 181.255 550.333 181.255C551.823 181.255 553.031 182.463 553.031 183.952C553.031 185.442 551.823 186.65 550.333 186.65Z" fill="#231F20" stroke="#231F20" stroke-miterlimit="10"/>
<path d="M565.909 185.185C556.949 198.332 546.39 207.218 553.873 211.771L562.76 217.093C568.362 219.4 573.184 211.771 569.131 207.792L563.602 204.508" stroke="#231F20" stroke-miterlimit="10"/>
<path d="M554.923 199.906L548.759 197.038C543.998 195.256 539.799 202.25 543.021 205.338L551.322 209.745" stroke="#231F20" stroke-miterlimit="10"/>
<path d="M646.863 185.185L575.54 176.738H645.423C646.155 179.558 646.643 182.378 646.863 185.185Z" fill="#231F20" stroke="#231F20" stroke-width="0.25" stroke-miterlimit="10"/>
<path d="M647.742 176.738L521.465 176.47C519.402 176.372 519.243 172.149 521.465 171.953H536.442L547.221 132.978C557.291 111.006 630.347 114.753 634.974 132.978L647.742 172.686V176.738Z" fill="#D1D3D4"/>
<path d="M647.742 172.063L536.442 171.953L541.203 154.73H641.968L647.742 172.063Z" fill="#A21D21"/>
<path d="M489.984 222.818L470.807 203.227C483.685 174.675 467.963 143.427 438.765 142.633C413.009 142.633 392.124 160.772 396.787 191.618C400.754 210.844 416.854 223.685 438.216 222.83H489.996L489.984 222.818Z" fill="#F7FCFE"/>
<path d="M200.712 67.3428C191.838 72.494 186.504 78.2555 184.624 87.1419C183.501 99.1044 185.197 106.16 190.288 111.213" stroke="#231F20" stroke-miterlimit="10"/>
<path d="M308.008 75.0452H320.044" stroke="#231F20" stroke-miterlimit="10"/>
<path d="M305.249 67.8311L295.106 67.1353" stroke="#F7FCFE" stroke-miterlimit="10"/>
<path d="M489.984 111.055L424.764 74.4715" stroke="#231F20" stroke-width="2" stroke-miterlimit="10"/>
<path d="M212.601 347.936L124.152 293.36" stroke="#231F20" stroke-width="2" stroke-miterlimit="10"/>
<path d="M64.0471 37.4611L46.6283 27.1099" stroke="#231F20" stroke-width="2" stroke-miterlimit="10"/>
<path d="M40.1832 22.6301L3.17281 1" stroke="#231F20" stroke-width="2" stroke-miterlimit="10"/>
<path d="M91.1335 83.0893L0.99998 28.9287" stroke="#231F20" stroke-width="2" stroke-miterlimit="10"/>
</svg>
