<svg width="25" height="25" viewBox="0 0 25 25" fill="none" xmlns="http://www.w3.org/2000/svg">
<circle cx="12.5" cy="12.5" r="12.5" fill="#ED1E2B" fill-opacity="0.16"/>
<path d="M8.01284 8V10.5H17V8H8.01284ZM8.01284 11.75V17.8875C8.01284 17.95 8.06419 18 8.12839 18H16.8716C16.9358 18 16.9872 17.95 16.9872 17.8875V11.75H8H8.01284ZM9.29672 13H10.5806V14.25H9.29672V13ZM11.8645 13H13.1484V14.25H11.8645V13ZM14.4322 13H15.7161V14.25H14.4322V13ZM9.29672 15.5H10.5806V16.75H9.29672V15.5ZM11.8645 15.5H13.1484V16.75H11.8645V15.5Z" fill="#A21D21"/>
</svg>
