<svg width="281" height="390" viewBox="0 0 281 390" fill="none" xmlns="http://www.w3.org/2000/svg">
<g clip-path="url(#clip0_152_174)">
<path d="M281 4.79792C255.609 3.23045 211.851 1.63905 168.32 0.0476525C150.635 -0.694203 134.433 8.3277 129.216 12.025C123.999 15.7223 109.868 17.3257 102.461 21.2623C95.0547 25.1989 75.7542 36.9609 77.9558 58.9413C78.2909 62.2916 78.59 71.3016 78.8413 84.1763C80.2772 156.088 80.4447 348.54 79.0088 348.54C78.7336 368.019 113.721 390.79 123.317 389.653C168.703 390.179 195.984 390.933 249.16 385.262C258.17 384.579 266.773 383.874 280.988 383.527L280.988 4.79792L281 4.79792Z" fill="#F0EBEB"/>
<path d="M3.05176e-05 82.9441L2.88026e-05 122.179C28.2987 120.097 55.5922 119.582 79.3917 121.078L78.8653 83.0039C63.3339 84.2244 43.8061 84.2842 22.2201 83.7099C15.0288 83.5184 7.59818 83.2552 0.0119934 82.9441L3.05176e-05 82.9441Z" fill="#F0EBEB"/>
<path d="M281 21.442C251.385 20.0779 219.856 19.8865 185.515 21.442C142.259 24.2777 115.097 64.6131 111.795 89.2977C113.254 93.4258 88.7608 91.2122 79.3798 92.4087L79.3798 113.073L104.113 113.073C107.631 113.444 110.646 114.545 110.885 119.654C110.06 136.202 109.724 146.672 109.605 154.401C109.401 166.139 103.299 172.78 94.9709 174.156C87.9591 174.24 83.472 174.766 79.7985 175.437L79.8943 194.976C95.1983 195.311 103.036 199.056 104.304 205.793C108.348 228.156 111.172 247.791 111.615 262.126C111.986 268.982 93.5829 268.767 80.002 269.078L79.9541 290.472C93.9299 292.398 114.726 292.949 115.097 296.323C116.844 316.76 118.782 329.036 120.948 331.992C129.169 353.745 149.666 365.866 175.643 373.691C181.362 376.659 220.131 374.301 248.442 375.522C264.44 378.059 272.6 377.353 281 377.353L281 21.442Z" fill="#A21D21"/>
<path d="M237.194 30.1289C245.725 38.8756 235.638 46.4975 217.989 63.0576C171.072 111.35 149.522 206.319 143.36 306.697C124.131 263.622 125.16 107.138 132.495 82.9561C137.377 68.6455 150.599 49.9794 166.417 40.0123C170.582 35.2979 173.214 30.9545 180.202 30.1408C186.46 38.1935 184.354 50.0512 174.099 61.1432C166.274 78.4451 164.467 89.3815 172.173 90.231C179.316 92.6839 185.395 86.8089 188.362 56.7638C199.466 32.7852 216.194 25.0436 237.206 30.1528L237.194 30.1289Z" fill="#F38596"/>
<path d="M281 82.7167C272.385 144.243 262.19 189.58 248.621 200.516C238.905 205.087 239.826 188.622 248.621 156.615C260.06 126.642 266.916 91.1284 260.323 82.7167C253.73 74.3051 237.385 82.4535 232.515 94.6103L220.993 191.554C219.856 208.09 221.04 219.984 226.485 223.382C241.274 241.689 235.076 257.998 218.623 273.313C191.689 284.118 176.887 305.177 168.499 331.657C160.279 368.414 184.665 367.876 240.269 331.657C253.012 323.245 271.954 196.005 281 178.739L281 82.7167Z" fill="#F04D65"/>
<path d="M158.269 226.301C151.867 255.389 144.628 284.597 147.296 312.452C153.124 332.303 158.867 348.995 163.761 336.228C166.776 304.483 187.884 284.405 219.736 269.102C203.367 280.684 186.388 278.028 171.264 274.773C160.447 270.478 157.096 251.237 158.281 226.301L158.269 226.301Z" fill="#ED1E2B"/>
<path d="M275.113 33.886C265.66 37.0448 257.32 36.0996 249.327 33.886C250.751 40.0721 248.286 43.7335 244.756 46.689L216.41 70.1052C229.775 64.5054 243.165 58.8937 249.519 61.5141C260.814 64.9601 263.674 66.4917 264.523 67.5446C267.287 55.3519 272.469 50.6256 278.978 49.9794C276.178 44.3318 273.45 38.6841 275.137 33.886L275.113 33.886Z" fill="#DC1F33"/>
<path d="M79.3798 286.846C88.1865 287.337 112.824 292.638 116.605 295.031C117.287 293.403 117.67 313.206 123.329 328.546C127.96 350.849 148.146 362.312 173.681 369.515C184.079 372.925 226.604 371.238 245.295 370.855C253.3 369.551 259.845 372.1 268.101 372.913C273.39 373.464 278.2 372.064 281.012 369.336L281.012 377.388C270.075 377.747 259.235 377.053 248.454 375.558C209.422 374.708 185.251 375.737 179.412 374.624C151.113 366.703 128.522 354.726 120.972 332.016C117.67 324.047 116.066 310.741 115.121 296.347L79.9781 290.496L79.4037 286.834L79.3798 286.846Z" fill="#A21D21"/>
<path d="M122.599 168.868C119.811 180.474 112.142 186.828 102.294 190.812C108.468 193.014 113.697 197.8 117.299 207.097L120.96 255.389C122.097 266.098 113.075 273.481 98.6444 277.334C109.126 278.554 119.62 283.676 130.102 292.697C123.581 251.417 121.08 210.148 122.599 168.868Z" fill="#ED1E2B"/>
<path d="M22.2082 83.7099L22.2082 120.862" stroke="#E4E4E4" stroke-width="1.75" stroke-miterlimit="10"/>
<path d="M14.957 83.4945L14.957 120.862" stroke="#E4E4E4" stroke-width="2.25" stroke-miterlimit="10"/>
<path d="M8.36398 83.2672L8.36398 121.604" stroke="#E4E4E4" stroke-width="2.5" stroke-miterlimit="10"/>
<path d="M79.3798 92.4087L64.7458 93.5095L64.7458 112.989L79.3798 113.085L79.3798 92.4087Z" fill="#F8B2B6"/>
<path d="M1.26836 259.649L1.26836 298.884C29.567 296.802 56.8605 296.287 80.6601 297.783L80.1336 259.709C64.6023 260.929 45.0744 260.989 23.4885 260.415C16.2971 260.223 8.86651 259.96 1.28032 259.649L1.26836 259.649Z" fill="#F0EBEB"/>
<path d="M23.4765 260.415L23.4765 297.567" stroke="#E4E4E4" stroke-width="1.75" stroke-miterlimit="10"/>
<path d="M16.2254 260.199L16.2254 297.567" stroke="#E4E4E4" stroke-width="2.25" stroke-miterlimit="10"/>
<path d="M9.63231 259.972L9.63231 298.321" stroke="#E4E4E4" stroke-width="2.5" stroke-miterlimit="10"/>
<path d="M80.4447 269.126C78.255 269.162 71.303 269.784 65.8108 270.226L65.8108 289.706C71.6021 290.005 77.1063 290.316 80.6002 290.615L80.4447 269.126Z" fill="#F8B2B6"/>
<path d="M80.5763 197.226L80.5763 171.847L57.5785 171.847L57.5785 197.226L80.5763 197.226Z" fill="#1B466F"/>
<path d="M77.7883 197.226L77.7883 175.544L57.5785 175.544L57.5785 171.847L80.5763 171.847L80.5763 197.226L77.7883 197.226Z" fill="#15234B"/>
<path d="M65.8108 170.196L65.8108 200.372" stroke="#9FBBE2" stroke-width="4" stroke-miterlimit="10"/>
</g>
<defs>
<clipPath id="clip0_152_174">
<rect width="390" height="281" fill="white" transform="translate(281) rotate(90)"/>
</clipPath>
</defs>
</svg>
