<svg width="670" height="720" viewBox="0 0 670 720" fill="none" xmlns="http://www.w3.org/2000/svg">
<rect width="670" height="720" fill="#EBF1F6"/>
<path d="M246.248 57.9179C248.464 43.3599 241.544 23.1978 229.752 0L670.001 3.84878e-05L670.001 111.804C650.836 117.215 624.707 131.04 615.749 151.393C606.791 171.746 582.694 202.302 561.497 214.443C540.3 226.584 500.28 226.173 477.553 218.475C454.825 210.777 447.635 225.695 420.734 228.006C384.588 228.887 356.756 220.21 338.256 207.478C319.757 194.746 308.506 164.445 305.265 160.191C302.025 155.936 266.605 145.105 252.846 118.402C245.423 101.609 244.031 72.4759 246.248 57.9179Z" fill="#A21D21"/>
<path d="M466.189 165.689C557.697 165.689 631.878 91.5076 631.878 2.897e-05L300.5 0C300.5 91.5076 374.682 165.689 466.189 165.689Z" fill="#ED1E2B"/>
<path d="M466.189 105.572C524.495 105.572 571.761 58.3057 571.761 1.84588e-05L360.617 0C360.617 58.3057 407.883 105.572 466.189 105.572Z" fill="#F04D65"/>
<path d="M423.754 662.082C421.538 676.64 428.458 696.802 440.25 720L0.000732422 720L0.00075197 608.196C19.166 602.785 45.2952 588.96 54.253 568.607C63.2107 548.254 87.3082 517.698 108.505 505.557C129.702 493.416 169.722 493.827 192.449 501.525C215.177 509.223 222.367 494.305 249.268 491.994C285.414 491.113 313.246 499.79 331.746 512.522C350.245 525.254 361.496 555.555 364.737 559.809C367.977 564.064 403.397 574.895 417.156 601.598C424.579 618.391 425.971 647.524 423.754 662.082Z" fill="#A21D21"/>
<path d="M203.813 554.311C112.305 554.311 38.1237 628.492 38.1237 720L369.502 720C369.502 628.492 295.32 554.311 203.813 554.311Z" fill="#ED1E2B"/>
<path d="M203.813 614.428C145.507 614.428 98.2411 661.694 98.2411 720L309.385 720C309.385 661.694 262.119 614.428 203.813 614.428Z" fill="#F04D65"/>
<g clip-path="url(#clip0_1013_1544)">
<path d="M669.732 237.46C649.301 221.768 621.827 210.008 589.955 200.706C520.326 187.851 492.495 173.986 416.39 158.695C386.418 154.185 353.51 148.773 342.053 149.986C331.797 150.52 327.206 155.2 321.76 160.346C312.294 169.033 304.473 172.64 297.079 178.902C297.687 178.672 290.731 182.15 285.28 185.094C280.016 189.812 264.357 198.954 265.542 197.276C263.386 201.609 258.287 208.555 253.327 204.756C246.408 191.404 257.182 180.558 260.892 179.879C271.655 173.639 277.32 167.43 276.316 161.259C276.978 148.933 258.415 148.581 240.568 147.784C194.691 150.098 178.835 147.977 179.508 137.072C183.362 125.617 212.742 135.971 240.413 128.251C244.331 118.756 168.248 129.047 170.304 109.315C174.126 99.4629 210.729 106.569 218.134 105.896C234.78 107.248 240.14 108.589 239.836 107.36C234.78 105.714 230.744 105.96 226.334 105.041C212.683 103.326 205.017 101.905 199.923 99.8796C185.872 97.8119 181.253 95.0282 182.204 89.8456C182.834 84.0805 190.281 82.8624 202.096 84.6362C209.581 85.3468 218.678 86.4795 229.212 88.1786C235.966 89.2632 243.226 90.4119 250.85 91.4271C249.729 88.9854 244.78 87.7298 238.875 85.63C233.584 83.7493 227.285 82.1037 221.524 81.1366C212.219 79.5818 205.305 74.8319 206.992 68.6448C212.501 60.1281 252.777 77.2202 266.856 77.2202C300.154 75.8738 321.269 84.9995 333.452 92.4102C366.761 95.1511 482.373 94.9 572.08 102.695C615.533 110.186 629.398 118.302 649.205 129.661L669.732 141.41V237.46Z" fill="#FBBFAC" stroke="#F8A592" stroke-miterlimit="10"/>
<path d="M668.739 220.395C650.299 204.11 624.705 195.855 590.884 187.563C560.073 182.017 507.716 161.831 428.146 149.5C407.677 145.556 379.761 142.896 349.276 139.636C337.296 141.854 332.908 141.934 332.331 135.453C331.941 133.887 331.493 133.017 331.066 124.537C332.037 114.354 333.847 109.171 334.338 104.442C334.851 100.446 333.804 95.9579 333.452 92.4048C321.931 85.7582 308.819 81.4198 294.618 78.6468C307.682 83.5836 320.564 88.6915 324.819 101.958C327.419 108.541 327.382 114.754 322.209 120.252C324.494 124.521 324.969 130.447 324.494 137.243C323.922 144.846 318.696 152.999 309.801 161.58C307.869 163.487 307.105 164.722 294.612 172.688C292.349 175.327 289.973 177.753 286.786 178.57C282.472 178.282 280.753 176.145 279.279 173.831C279.925 177.587 280.016 181.156 279.279 184.448L267.854 195.443L262.959 192.12L264.784 198.671C266.381 197.618 267.876 196.779 269.253 196.063C276.535 191.645 278.751 189.721 285.285 185.078C289.295 182.733 293.278 180.51 297.084 178.886C307.361 170.316 319.721 162.964 329.08 154.078C329.08 154.078 336.335 148.34 347.52 149.815C354.209 148.265 414.314 158.363 414.314 158.363C497.679 176.113 558.482 195.47 589.955 200.69C619.831 208.454 646.06 221.207 669.732 237.46V220.561L668.739 220.395Z" fill="#F8A592" stroke="#F8A592" stroke-miterlimit="10"/>
<path d="M258.539 185.703C257.621 184.544 257.151 183.379 257.13 182.22L255.213 184.319C256.5 184.352 257.583 184.875 258.534 185.703H258.539Z" fill="#F8A592"/>
<path d="M278.521 171.187C276.247 168.654 275.98 165.486 276.418 162.098C276.573 164.722 275.793 167.078 274.09 169.167C275.911 169.509 277.39 170.182 278.521 171.187Z" fill="#F8A592"/>
<path d="M273.855 154.383C271.005 146.673 259.654 145.15 243.51 144.509C242.319 142.89 241.566 140.197 240.819 137.494C241.059 140.4 241.225 143.232 240.392 145.027C236.681 145.247 232.827 145.225 228.855 144.995C226.885 142.49 226.959 139.989 226.986 137.494C226.159 140.587 225.053 143.462 223.009 145.578L206.021 145.519C204.232 143.975 203.565 141.693 203.111 139.273C202.951 140.742 201.728 143.141 199.651 146.288C190.666 145.417 184.035 143.98 180.603 141.784C183.95 145.156 189.081 148.041 203.351 148.42C210.382 148.431 217.814 148.324 224.589 148.1C232.49 147.838 239.506 147.854 243.958 147.934C251.689 147.619 259.574 148.383 267.7 150.878C270.214 151.455 272.088 152.85 273.845 154.383H273.855Z" fill="#F8A592"/>
<path d="M239.955 126.365C239.261 123.351 239.277 120.728 239.955 118.473C237.665 121.086 234.91 122.977 229.032 122.576C222.177 121.118 219.289 119.36 219.758 116.331C218.568 119.013 216.998 120.626 215.231 121.689C207.442 121.091 200.325 120.327 194.757 119.178C192.525 117.121 192.066 115.396 192.093 113.755C191.276 115.55 190.219 117.255 188.361 118.655C184.859 119.087 179.456 117.153 173.039 115.518C177.363 117.976 182.622 120.167 191.527 121.326C206.646 122.924 220.303 124.024 230.842 124.078C237.179 124.169 236.56 124.943 239.955 126.365Z" fill="#F8A592"/>
<path d="M242.223 101.995C240.931 104.474 239.858 106.644 239.842 107.349L226.34 105.03L209.827 102.546L200.265 99.73C196.256 99.4842 192.881 98.6186 189.828 97.4325C182.396 95.1404 182.759 93.2864 182.514 91.4003C186.624 95.8777 191.766 98.1324 199.56 98.2019C200.692 97.6462 200.991 96.599 200.692 95.1992C202.038 96.941 202.102 99.3773 205.283 100.254C215.283 102.856 219.148 103.315 223.676 102.797C225.005 101.921 226.617 100.734 227.135 98.8484C226.836 100.932 226.58 103.005 229.644 104.117L238.459 105.126C239.9 104.667 241.107 103.572 242.223 102.214" fill="#F8A592"/>
<path d="M203.064 134.678L203.758 131.307H201.836L203.064 134.961" fill="#F8A592"/>
<path d="M227.505 134.432L228.055 130.623L226.223 130.821L227.505 134.432Z" fill="#F8A592"/>
<path d="M221.627 106.542L220.202 111.645L219.63 106.013L221.627 106.542Z" fill="#F8A592"/>
<path d="M193.432 104.181L192.615 108.38L191.51 104.101L193.432 104.181Z" fill="#F8A592"/>
<path d="M202.203 88.5312C202.252 87.2008 202.534 85.9238 203.148 84.7324L200.607 84.4225C201.904 86.02 202.326 87.3557 202.198 88.5312H202.203Z" fill="#F8A592"/>
<path d="M229.095 92.5758L229.709 88.5312L227.328 87.8687C228.326 89.4342 228.914 91.005 229.095 92.5705V92.5758Z" fill="#F8A592"/>
<path d="M250.856 91.4218L252.762 86.3673C251.641 87.4146 249.959 88.2374 247.065 88.5686C248.896 89.1189 250.471 89.8456 250.856 91.4218Z" fill="#F8A592"/>
<path d="M240.509 86.1964C239.992 84.8392 240.397 83.1936 240.926 81.5106C240.109 82.8837 239.105 84.1714 237.189 85.0476L240.504 86.1964H240.509Z" fill="#F8A592"/>
<path d="M227.328 82.2906C223.89 81.019 220.318 79.6405 220.895 78.6574L221.301 76.1195C220.062 77.3965 218.594 78.2567 216.651 78.2834C214.216 78.1392 212.011 77.1668 209.838 76.1195C212.401 78.8925 218.925 81.1045 227.328 82.2906Z" fill="#F8A592"/>
<path d="M224.279 67.9502C223.575 68.3616 223.163 69.6546 222.768 71.0117C222.918 69.7187 222.715 68.4311 222.16 67.1381L224.279 67.9502Z" fill="#F8A592"/>
<path d="M244.567 72.6359L243.094 76.1142L242.848 72.1711L244.834 72.7054" fill="#F8A592"/>
<path d="M256.639 128.796C267.887 117.848 271.384 102.567 272.922 86.191C264.647 90.8981 258.213 97.1547 256.639 107.493C254.829 119.969 254.855 126.984 256.639 128.796Z" fill="#FBC5B8"/>
<path d="M286.264 165.55C308.185 154.805 315.915 122.87 308.057 115.93C299.675 108.53 274.967 120.348 266.681 138.963C266.521 145.978 280.605 141.09 282.35 147.293C283.221 150.392 283.381 167.965 286.269 165.55H286.264Z" fill="#FBC5B8"/>
<path d="M262.964 129.667C270.924 121.262 290.795 114.952 297.773 107.493C302.546 101.963 296.796 95.7175 288.862 95.7175C279.114 98.1806 270.769 111.757 262.964 129.667Z" fill="#FAB8A9"/>
<path d="M319.075 130.623C299.214 119.654 281.046 123.976 265.334 143.499C270.732 136.131 273.844 128.149 290.432 123.773C302.257 121.075 309.534 123.057 319.08 130.618L319.075 130.623Z" fill="#F69685"/>
<path d="M258.474 141.907C264.347 117.789 281.324 103.294 306.582 95.9632C289.936 99.372 286.994 99.372 275.12 108.829C261.656 121.326 260.145 130.382 258.474 141.907Z" fill="#F69685"/>
<path d="M249.916 134.961C262.857 121.989 268.89 104.758 269.861 84.4171C266.888 95.8243 264.41 107.296 261.784 113.632C259.152 119.606 255.393 127.182 249.916 134.961Z" fill="#F69685"/>
<g clip-path="url(#clip1_1013_1544)">
<path opacity="0.65" d="M542.896 151.786L540.577 151.319L541.449 146.319L543.764 146.822L542.896 151.786Z" fill="#EF4B62" stroke="#EF4B62" stroke-miterlimit="10"/>
<path opacity="0.65" d="M543.102 151.578L540.452 151.065" stroke="#C62E3B" stroke-width="3" stroke-miterlimit="10"/>
<path opacity="0.65" d="M543.9 147.09L541.251 146.576" stroke="#C62E3B" stroke-width="3" stroke-miterlimit="10"/>
<path opacity="0.65" d="M543.252 150.792L540.603 150.279" stroke="#C73843" stroke-width="3" stroke-miterlimit="10"/>
<path opacity="0.65" d="M543.748 147.962L541.099 147.448" stroke="#C73843" stroke-width="3" stroke-miterlimit="10"/>
<path opacity="0.72" d="M541.674 170.549L553.036 172.544C555.507 172.978 557.861 171.322 558.293 168.845L563.792 137.377C564.224 134.9 562.572 132.54 560.102 132.106L548.739 130.11C546.269 129.676 543.915 131.333 543.482 133.81L537.984 165.278C537.551 167.755 539.203 170.115 541.674 170.549Z" fill="#FCF2E4"/>
<path d="M543.217 167.299L552.687 168.962C554.393 169.262 556.018 168.118 556.316 166.408L561.106 138.994C561.405 137.284 560.265 135.655 558.559 135.355L549.089 133.692C547.383 133.393 545.758 134.536 545.46 136.246L540.67 163.66C540.371 165.37 541.511 166.999 543.217 167.299Z" fill="#FFFFFA"/>
</g>
</g>
<g clip-path="url(#clip2_1013_1544)">
<path d="M0.269531 482.54C20.7011 498.232 48.1746 509.992 80.0472 519.294C149.676 532.149 177.507 546.014 253.612 561.305C283.584 565.815 316.492 571.227 327.949 570.014C338.205 569.48 342.796 564.8 348.242 559.654C357.708 550.967 365.529 547.36 372.923 541.098C372.315 541.328 379.271 537.85 384.722 534.906C389.986 530.188 405.645 521.046 404.459 522.724C406.616 518.391 411.715 511.445 416.675 515.244C423.594 528.596 412.82 539.442 409.11 540.121C398.347 546.361 392.682 552.57 393.686 558.741C393.024 571.067 411.587 571.42 429.434 572.216C475.311 569.902 491.167 572.023 490.494 582.928C486.64 594.383 457.26 584.029 429.589 591.749C425.671 601.244 501.754 590.953 499.698 610.685C495.876 620.537 459.273 613.431 451.868 614.104C435.222 612.753 429.861 611.411 430.166 612.64C435.222 614.286 439.258 614.04 443.668 614.959C457.319 616.674 464.985 618.095 470.079 620.12C484.13 622.188 488.748 624.972 487.798 630.155C487.168 635.92 479.721 637.138 467.906 635.364C460.421 634.653 451.323 633.521 440.79 631.821C434.036 630.737 426.776 629.588 419.152 628.573C420.273 631.015 425.222 632.27 431.127 634.37C436.418 636.251 442.717 637.896 448.478 638.863C457.783 640.418 464.697 645.168 463.01 651.355C457.5 659.872 417.225 642.78 403.146 642.78C369.848 644.126 348.733 635.001 336.55 627.59C303.241 624.849 187.629 625.1 97.9215 617.305C54.469 609.814 40.6042 601.698 20.7972 590.339L0.269523 578.59L0.269531 482.54Z" fill="#FBBFAC" stroke="#F8A592" stroke-miterlimit="10"/>
<path d="M1.26255 499.605C19.7028 515.89 45.297 524.145 79.1183 532.437C109.928 537.983 162.286 558.169 241.856 570.501C262.325 574.444 290.241 577.104 320.726 580.364C332.706 578.146 337.094 578.066 337.671 584.547C338.061 586.113 338.509 586.984 338.936 595.463C337.965 605.646 336.155 610.829 335.664 615.558C335.151 619.554 336.198 624.042 336.55 627.595C348.071 634.242 361.183 638.58 375.384 641.353C362.32 636.416 349.438 631.309 345.183 618.042C342.583 611.46 342.62 605.246 347.793 599.748C345.508 595.479 345.033 589.553 345.508 582.757C346.08 575.154 351.306 567.001 360.201 558.42C362.133 556.513 362.897 555.278 375.39 547.312C377.653 544.673 380.029 542.247 383.216 541.43C387.53 541.718 389.249 543.855 390.723 546.169C390.077 542.413 389.986 538.844 390.723 535.552L402.148 524.557L407.043 527.88L405.218 521.329C403.621 522.382 402.126 523.221 400.749 523.937C393.467 528.355 391.251 530.279 384.717 534.922C380.707 537.267 376.724 539.49 372.918 541.114C362.641 549.684 350.281 557.036 340.922 565.922C340.922 565.922 333.667 571.66 322.482 570.185C315.793 571.735 255.688 561.637 255.688 561.637C172.323 543.887 111.519 524.53 80.0472 519.31C50.1713 511.546 23.9418 498.793 0.269531 482.54L0.26953 499.439L1.26255 499.605Z" fill="#F8A592" stroke="#F8A592" stroke-miterlimit="10"/>
<path d="M411.463 534.297C412.381 535.456 412.851 536.621 412.872 537.78L414.789 535.681C413.502 535.649 412.419 535.125 411.468 534.297L411.463 534.297Z" fill="#F8A592"/>
<path d="M391.48 548.814C393.755 551.346 394.022 554.514 393.584 557.902C393.429 555.278 394.209 552.922 395.912 550.833C394.091 550.491 392.612 549.818 391.48 548.814Z" fill="#F8A592"/>
<path d="M396.146 565.617C398.997 573.327 410.348 574.85 426.492 575.491C427.683 577.11 428.436 579.803 429.183 582.506C428.943 579.6 428.777 576.768 429.61 574.973C433.321 574.754 437.175 574.775 441.147 575.005C443.117 577.51 443.042 580.011 443.016 582.506C443.843 579.413 444.948 576.538 446.993 574.422L463.981 574.481C465.77 576.025 466.437 578.307 466.891 580.727C467.051 579.258 468.274 576.859 470.35 573.712C479.336 574.583 485.966 576.02 489.399 578.216C486.052 574.844 480.921 571.959 466.651 571.58C459.619 571.569 452.188 571.676 445.413 571.9C437.511 572.162 430.496 572.146 426.044 572.066C418.313 572.381 410.428 571.617 402.302 569.122C399.788 568.545 397.914 567.151 396.157 565.617L396.146 565.617Z" fill="#F8A592"/>
<path d="M430.047 593.635C430.741 596.649 430.725 599.272 430.047 601.527C432.337 598.914 435.092 597.023 440.97 597.424C447.825 598.882 450.713 600.64 450.244 603.67C451.434 600.987 453.004 599.374 454.771 598.311C462.56 598.909 469.677 599.673 475.245 600.822C477.477 602.879 477.936 604.605 477.909 606.245C478.726 604.45 479.783 602.745 481.641 601.345C485.143 600.913 490.546 602.847 496.963 604.482C492.639 602.024 487.38 599.833 478.475 598.674C463.356 597.076 449.699 595.976 439.16 595.922C432.823 595.831 433.442 595.057 430.047 593.635Z" fill="#F8A592"/>
<path d="M427.779 618.005C429.071 615.526 430.144 613.356 430.16 612.651L443.662 614.97L460.175 617.454L469.737 620.27C473.746 620.516 477.12 621.381 480.174 622.568C487.606 624.86 487.243 626.714 487.488 628.6C483.378 624.122 478.236 621.868 470.442 621.798C469.31 622.354 469.011 623.401 469.31 624.801C467.964 623.059 467.9 620.623 464.718 619.746C454.719 617.144 450.854 616.685 446.326 617.203C444.997 618.079 443.385 619.266 442.867 621.152C443.166 619.068 443.422 616.995 440.358 615.883L431.543 614.874C430.102 615.333 428.895 616.428 427.779 617.786" fill="#F8A592"/>
<path d="M466.938 585.322L466.244 588.693L468.166 588.693L466.938 585.039" fill="#F8A592"/>
<path d="M442.497 585.568L441.947 589.377L443.778 589.179L442.497 585.568Z" fill="#F8A592"/>
<path d="M448.375 613.458L449.8 608.355L450.372 613.987L448.375 613.458Z" fill="#F8A592"/>
<path d="M476.57 615.819L477.387 611.62L478.492 615.9L476.57 615.819Z" fill="#F8A592"/>
<path d="M467.798 631.469C467.75 632.799 467.467 634.076 466.854 635.268L469.395 635.578C468.097 633.98 467.676 632.644 467.804 631.469L467.798 631.469Z" fill="#F8A592"/>
<path d="M440.907 627.424L440.293 631.469L442.674 632.131C441.676 630.566 441.088 628.995 440.907 627.43L440.907 627.424Z" fill="#F8A592"/>
<path d="M419.146 628.578L417.24 633.633C418.361 632.585 420.043 631.763 422.937 631.431C421.106 630.881 419.531 630.154 419.146 628.578Z" fill="#F8A592"/>
<path d="M429.493 633.804C430.01 635.161 429.605 636.806 429.076 638.489C429.893 637.116 430.897 635.829 432.813 634.952L429.498 633.804L429.493 633.804Z" fill="#F8A592"/>
<path d="M442.674 637.709C446.112 638.981 449.684 640.36 449.107 641.343L448.701 643.881C449.94 642.604 451.408 641.743 453.351 641.717C455.786 641.861 457.991 642.833 460.164 643.881C457.601 641.108 451.077 638.896 442.674 637.709Z" fill="#F8A592"/>
<path d="M445.723 652.05C446.427 651.638 446.838 650.345 447.234 648.988C447.084 650.281 447.287 651.569 447.842 652.862L445.723 652.05Z" fill="#F8A592"/>
<path d="M425.435 647.364L426.908 643.886L427.154 647.829L425.168 647.295" fill="#F8A592"/>
<path d="M413.363 591.204C402.115 602.152 398.618 617.433 397.08 633.809C405.355 629.102 411.788 622.845 413.363 612.507C415.173 600.031 415.147 593.016 413.363 591.204Z" fill="#FBC5B8"/>
<path d="M383.738 554.45C361.817 565.195 354.086 597.13 361.945 604.07C370.327 611.47 395.035 599.652 403.321 581.037C403.481 574.022 389.397 578.91 387.651 572.707C386.781 569.608 386.621 552.035 383.733 554.45L383.738 554.45Z" fill="#FBC5B8"/>
<path d="M407.038 590.334C399.078 598.738 379.207 605.048 372.229 612.507C367.456 618.037 373.206 624.283 381.14 624.283C390.888 621.819 399.233 608.243 407.038 590.334Z" fill="#FAB8A9"/>
<path d="M350.927 589.377C370.788 600.346 388.955 596.024 404.668 576.501C399.27 583.869 396.158 591.851 379.57 596.227C367.744 598.925 360.468 596.943 350.922 589.382L350.927 589.377Z" fill="#F69685"/>
<path d="M411.528 578.093C405.655 602.211 388.678 616.706 363.42 624.037C380.066 620.628 383.008 620.628 394.881 611.171C408.346 598.674 409.857 589.618 411.528 578.093Z" fill="#F69685"/>
<path d="M420.086 585.039C407.145 598.011 401.112 615.242 400.141 635.583C403.114 624.176 405.592 612.704 408.218 606.368C410.85 600.394 414.609 592.818 420.086 585.039Z" fill="#F69685"/>
<g clip-path="url(#clip3_1013_1544)">
<path opacity="0.65" d="M127.106 568.214L129.425 568.681L128.553 573.681L126.237 573.178L127.106 568.214Z" fill="#EF4B62" stroke="#EF4B62" stroke-miterlimit="10"/>
<path opacity="0.65" d="M126.9 568.422L129.549 568.935" stroke="#C62E3B" stroke-width="3" stroke-miterlimit="10"/>
<path opacity="0.65" d="M126.102 572.91L128.751 573.424" stroke="#C62E3B" stroke-width="3" stroke-miterlimit="10"/>
<path opacity="0.65" d="M126.75 569.208L129.399 569.721" stroke="#C73843" stroke-width="3" stroke-miterlimit="10"/>
<path opacity="0.65" d="M126.254 572.038L128.903 572.552" stroke="#C73843" stroke-width="3" stroke-miterlimit="10"/>
<path opacity="0.72" d="M128.328 549.452L116.966 547.456C114.495 547.022 112.141 548.678 111.709 551.155L106.21 582.623C105.777 585.1 107.429 587.46 109.9 587.894L121.263 589.89C123.733 590.324 126.087 588.668 126.52 586.19L132.018 554.722C132.451 552.245 130.799 549.885 128.328 549.452Z" fill="#FCF2E4"/>
<path d="M126.785 552.701L117.315 551.038C115.609 550.738 113.984 551.882 113.686 553.592L108.896 581.006C108.597 582.716 109.737 584.345 111.443 584.645L120.913 586.308C122.619 586.607 124.244 585.464 124.542 583.754L129.332 556.34C129.631 554.63 128.491 553.001 126.785 552.701Z" fill="#FFFFFA"/>
</g>
</g>
<path d="M129 571C139 573 185.5 610 233.5 574C281.5 538 475.114 348.553 409.102 302.194C376.529 279.319 354.676 334.248 337.702 333.979C320.727 333.709 294.862 274.181 268.457 302.194C242.052 330.208 268.457 443.877 349.288 438.49C430.118 433.103 460.295 345.022 449.787 298.693C439.279 252.363 429.683 245 442 212C454.317 179 525.95 146.076 540.5 148.5" stroke="#C21924" stroke-width="6"/>
<path d="M404.992 308.503C376.166 295.128 361.101 342.375 336.682 343.118C312.264 343.86 298.596 296.929 278.552 308.503C258.509 320.078 286.184 435.375 362.667 426.679C375.525 425.867 433.818 321.878 404.992 308.503Z" fill="#A21D21"/>
<path d="M390.384 327.582C367.926 317.279 356.189 353.672 337.166 354.244C318.142 354.816 307.493 318.666 291.878 327.582C276.263 336.497 297.824 425.307 357.409 418.609C367.427 417.984 412.841 337.884 390.384 327.582Z" fill="#ED1E2B"/>
<path d="M375.141 348.279C359.723 341.14 351.665 366.359 338.604 366.756C325.542 367.152 318.232 342.101 307.511 348.279C296.79 354.458 311.593 416.001 352.502 411.359C359.38 410.926 390.56 355.419 375.141 348.279Z" fill="#F04D65"/>
<defs>
<clipPath id="clip0_1013_1544">
<rect width="500" height="172" fill="white" transform="matrix(-1 0 0 -1 670 238)"/>
</clipPath>
<clipPath id="clip1_1013_1544">
<rect width="22.4923" height="41.6827" fill="white" transform="matrix(-0.993467 -0.114122 0.113539 -0.993533 559.695 173.316)"/>
</clipPath>
<clipPath id="clip2_1013_1544">
<rect width="500" height="172" fill="white" transform="translate(0.00195312 482)"/>
</clipPath>
<clipPath id="clip3_1013_1544">
<rect width="22.4923" height="41.6827" fill="white" transform="matrix(0.993467 0.114122 -0.113539 0.993533 110.307 546.684)"/>
</clipPath>
</defs>
</svg>
