<svg width="263" height="212" viewBox="0 0 263 212" fill="none" xmlns="http://www.w3.org/2000/svg">
<path d="M1.20954 113.843C4.04119 106.238 35.3041 69.8486 35.7011 55.0211C36.1364 45.4932 39.2264 36.8454 49.0797 30.4552C66.8493 19.9611 78.2189 27.2361 94.4866 32.4306C115.217 38.883 132.594 35.5539 145.16 18.1722C155.539 2.82808 173.208 -3.54298 186.18 1.93843C206.691 11.3707 198.062 30.8952 204.825 43.3982C211.627 57.6566 246.501 34.9513 259.885 57.7666C264.524 66.6248 263.831 90.5594 258.569 96.4808C253.308 102.402 239.288 100.111 240.144 121.927C240.364 134.65 243 139.691 235.538 153.954C230.191 161.842 217.435 161.186 209.982 174.579C187.663 214.68 178.68 211.964 143.629 211.428C115.15 211.447 89.0625 217.349 62.4679 190.808C55.0109 184.666 45.5785 157.412 20.5767 151.324C-1.04814 143.058 -1.62211 121.449 1.20954 113.843Z" fill="#F38596"/>
<path d="M25.0105 112.56C27.3329 106.318 52.9726 76.4492 53.2982 64.2786C53.6551 56.458 56.1893 49.3598 64.2703 44.1146C78.8437 35.501 88.1683 41.4724 101.51 45.7361C118.511 51.0322 132.763 48.2998 143.068 34.0327C151.581 21.4381 166.072 16.2086 176.711 20.7078C193.532 28.4499 186.455 44.4758 192.002 54.7384C197.58 66.4418 226.182 47.8051 237.158 66.5321C240.963 73.803 240.394 93.4487 236.079 98.3091C231.764 103.17 220.266 101.289 220.968 119.195C221.149 129.639 223.31 133.777 217.191 145.484C212.805 151.958 202.344 151.42 196.231 162.413C177.927 195.328 170.56 193.098 141.813 192.659C118.457 192.674 97.0614 197.519 75.2504 175.734C69.1347 170.693 61.3988 148.322 40.8941 143.325C23.1589 136.54 22.6882 118.803 25.0105 112.56Z" fill="#F04D65"/>
<path d="M47.1047 111.218C48.9388 106.277 69.1884 82.6346 69.4455 73.001C69.7275 66.8106 71.7289 61.192 78.1111 57.0402C89.6207 50.2221 96.985 54.9488 107.522 58.3237C120.949 62.5159 132.205 60.353 140.344 49.0599C147.067 39.0906 158.511 34.9513 166.913 38.5126C180.198 44.6408 174.609 57.3261 178.99 65.4494C183.396 74.7133 205.984 59.9614 214.653 74.7847C217.658 80.5401 217.209 96.0906 213.801 99.9378C210.393 103.785 201.312 102.296 201.867 116.47C202.009 124.737 203.716 128.012 198.883 137.279C195.42 142.403 187.158 141.978 182.33 150.679C167.874 176.733 162.056 174.968 139.352 174.62C120.906 174.633 104.009 178.467 86.7828 161.223C81.9528 157.233 75.8432 139.526 59.6492 135.57C45.6424 130.2 45.2706 116.16 47.1047 111.218Z" fill="#ED1E2B"/>
<path d="M71.3892 109.504C72.6981 105.988 87.1496 89.1601 87.3331 82.3034C87.5343 77.8974 88.9627 73.8984 93.5175 70.9434C101.732 66.0907 106.987 69.4549 114.507 71.8569C124.09 74.8407 132.123 73.3012 137.931 65.2634C142.729 58.1679 150.897 55.2217 156.893 57.7565C166.374 62.1182 162.385 71.1469 165.512 76.9286C168.656 83.5221 184.777 73.0225 190.963 83.573C193.108 87.6693 192.787 98.7373 190.355 101.476C187.923 104.214 181.442 103.154 181.838 113.242C181.94 119.126 183.158 121.457 179.709 128.053C177.237 131.7 171.341 131.397 167.895 137.59C157.578 156.134 153.426 154.878 137.223 154.63C124.059 154.639 112 157.368 99.7062 145.095C96.2592 142.255 91.899 129.652 80.3418 126.836C70.3456 123.014 70.0802 113.021 71.3892 109.504Z" fill="#A21D21"/>
<path d="M67.9325 40.8791C67.9325 40.8791 65.1293 33.3134 64.2996 31.8808C63.4699 30.4482 57.2191 24.1952 52.7847 21.4345C51.1737 20.2497 49.0471 23.0568 50.2917 24.4236C52.672 26.5841 54.8388 28.6517 56.3572 30.4599C57.5695 31.8925 55.6886 33.0889 54.4481 32.2642L35.2406 19.3011C32.8079 18.0505 30.0168 20.9815 32.3165 22.8516L44.0127 32.0551C44.8826 32.7869 44.2342 33.2592 43.4287 32.7636L28.9616 24.1216C26.4161 22.8206 24.499 26.3479 26.2228 27.7302C26.2228 27.7302 41.2779 37.255 41 37.526C40.7221 37.7971 26.7786 31.3427 26.7786 31.3427C24.9783 30.6767 23.0088 33.4722 24.5634 34.8351L39.3407 43.0628C40.4281 43.7172 40.0898 44.1818 39.3084 43.9495L29.3965 39.6866C26.7182 39.0942 25.7637 42.7337 27.4271 43.6514C34.7653 47.2832 44.0972 51.9139 47.8671 52.9439C50.0339 53.5363 53.7634 54.2487 56.3008 54.1867C57.2594 55.4064 58.4395 56.6802 59.688 57.9734L67.9365 40.8675L67.9325 40.8791Z" fill="#FABFAC"/>
<path d="M203.348 135.155C208 125.5 202.225 114.359 203.348 108.211L68.8104 37.9287L54.8467 62.6274C77.6026 75.544 103.081 86.7996 130.126 97.1065C135.326 128.213 113.005 131.996 169.5 169C182.718 155.783 190.129 148.373 203.348 135.155Z" fill="#BB3035"/>
<path d="M191.1 115.869C188.514 125.193 169.488 125.634 169.488 111.607L171.429 99.3559C158.501 94.3108 154.9 83.6864 160.809 76.4189C165.521 71.5016 169.738 66.7237 173.185 62.1588L202.18 66.4178C203.912 71.2267 203.163 75.8962 200.331 80.4456C200.331 80.4456 195.643 88.6153 195.16 90.1215C194.677 91.6276 192.312 108.768 191.096 115.869H191.1Z" fill="#FABFAC"/>
<path d="M171.43 99.3561L181.217 103.816L170.371 106.027L171.43 99.3561Z" fill="#F8A692"/>
<path d="M175.977 91.9878C175.892 90.3345 175.082 89.2271 173 89.08C171.546 89.1923 170.439 89.8776 170.185 91.9878" stroke="#231F20" stroke-miterlimit="10"/>
<path d="M175.671 84.2016L167.922 81.6268" stroke="#231F20" stroke-miterlimit="10"/>
<path d="M175.617 84.3526C175.255 86.5634 173.543 87.4307 170.655 87.1287C168.021 86.3659 167.115 84.581 167.856 81.8126L175.617 84.3526Z" fill="white"/>
<path d="M192.647 86.3503C194.89 86.3503 196.711 84.6002 196.711 82.4436C196.711 80.287 194.89 78.5369 192.647 78.5369" stroke="#231F20" stroke-miterlimit="10"/>
<path d="M187.266 72.737C186.392 71.738 185.481 70.8785 184.064 70.5184C182.646 70.1583 181.24 70.5261 180.06 71.0527" stroke="#231F20" stroke-miterlimit="10"/>
<path d="M181.111 76.0978C180.619 76.0978 180.221 75.7147 180.221 75.2422C180.221 74.7696 180.619 74.3865 181.111 74.3865C181.602 74.3865 182.001 74.7696 182.001 75.2422C182.001 75.7147 181.602 76.0978 181.111 76.0978Z" fill="#231F20" stroke="#231F20" stroke-miterlimit="10"/>
<path d="M171.208 70.8358C170.716 70.8358 170.317 70.4527 170.317 69.9801C170.317 69.5076 170.716 69.1245 171.208 69.1245C171.699 69.1245 172.098 69.5076 172.098 69.9801C172.098 70.4527 171.699 70.8358 171.208 70.8358Z" fill="#231F20" stroke="#231F20" stroke-miterlimit="10"/>
<path d="M176.347 70.3713C173.391 74.5413 169.907 77.36 172.376 78.8043L175.308 80.4924C177.156 81.2242 178.747 78.8043 177.41 77.542L175.586 76.5005" stroke="#231F20" stroke-miterlimit="10"/>
<path d="M172.722 75.0407L170.688 74.1308C169.117 73.5655 167.731 75.7841 168.795 76.7636L171.534 78.1614" stroke="#231F20" stroke-miterlimit="10"/>
<path d="M203.058 70.3713L179.524 67.692H202.582C202.824 68.5864 202.985 69.4808 203.058 70.3713Z" fill="#231F20" stroke="#231F20" stroke-width="0.25" stroke-miterlimit="10"/>
<path d="M203.349 67.6919L161.683 67.6068C161.003 67.5758 160.95 66.2361 161.683 66.1742H166.625L170.181 53.8113C173.504 46.8419 197.609 48.0305 199.136 53.8113L203.349 66.4065V67.6919Z" fill="#D1D3D4"/>
<path d="M203.349 66.209L166.625 66.1741L168.196 60.7109H201.444L203.349 66.209Z" fill="#A21D21"/>
<path d="M151.296 82.3083L144.968 76.0939C149.218 67.0376 144.03 57.1256 134.396 56.8739C125.898 56.8739 119.007 62.6275 120.545 72.4118C121.854 78.51 127.167 82.5832 134.215 82.3121H151.3L151.296 82.3083Z" fill="#F7FCFE"/>
<path d="M55.8496 32.992C52.9216 34.626 51.1615 36.4535 50.5413 39.2722C50.1707 43.0667 50.7305 45.3046 52.41 46.9076" stroke="#231F20" stroke-miterlimit="10"/>
<path d="M130.5 63L129.75 64.299L133.446 69.8971L140.142 70.299L140.892 69L130.5 63ZM129 65.5981L126 70.7942L136.392 76.7942L139.392 71.5981L132.696 71.1962L129 65.5981Z" fill="#A21D21"/>
</svg>
