<svg width="89" height="144" viewBox="0 0 89 144" fill="none" xmlns="http://www.w3.org/2000/svg">
<g clip-path="url(#clip0_161_197)">
<path opacity="0.65" d="M70.5898 70.4067L78.1956 71.9324L75.3358 88.2831L67.7437 86.6382L70.5898 70.4067Z" fill="#EF4B62" stroke="#EF4B62" stroke-miterlimit="10"/>
<path opacity="0.65" d="M69.9183 71.0846L78.6036 72.7642" stroke="#C62E3B" stroke-width="3" stroke-miterlimit="10"/>
<path opacity="0.65" d="M67.3005 85.7621L75.9858 87.4416" stroke="#C62E3B" stroke-width="3" stroke-miterlimit="10"/>
<path opacity="0.65" d="M69.4225 73.6549L78.1078 75.3345" stroke="#C73843" stroke-width="3" stroke-miterlimit="10"/>
<path opacity="0.65" d="M67.7985 82.9102L76.4837 84.5898" stroke="#C73843" stroke-width="3" stroke-miterlimit="10"/>
<path opacity="0.72" d="M74.6008 9.05074L37.3481 2.52486C29.2479 1.10589 21.5311 6.52207 20.1121 14.6222L2.08571 117.525C0.666738 125.625 6.08292 133.342 14.1831 134.761L51.4358 141.287C59.536 142.706 67.2528 137.29 68.6717 129.19L86.6981 26.2867C88.1171 18.1865 82.7009 10.4697 74.6008 9.05074Z" fill="#FCF2E4"/>
<path d="M69.5413 19.6771L38.4941 14.2383C32.9018 13.2586 27.5741 16.998 26.5945 22.5903L10.8906 112.235C9.91094 117.828 13.6503 123.155 19.2426 124.135L50.2898 129.574C55.8821 130.553 61.2098 126.814 62.1894 121.222L77.8933 31.5767C78.8729 25.9844 75.1336 20.6568 69.5413 19.6771Z" fill="#FFFFFA"/>
</g>
<defs>
<clipPath id="clip0_161_197">
<rect width="73.74" height="136.31" fill="white" transform="translate(15.5162) rotate(6.53617)"/>
</clipPath>
</defs>
</svg>
