<svg xmlns="http://www.w3.org/2000/svg" width="250" height="123" viewBox="0 0 250 123" fill="none">
  <rect x="50.6992" y="94.4057" width="78.6715" height="15.7343" rx="7.86715" fill="#F38596"/>
  <rect x="150.351" y="68.1819" width="52.4477" height="15.7343" rx="7.86715" fill="#F38596"/>
  <rect x="131.12" y="66.4338" width="24.4756" height="15.7343" rx="7.86715" fill="white"/>
  <rect x="34.9648" y="94.4057" width="24.4756" height="15.7343" rx="7.86715" fill="white"/>
  <rect x="122.378" y="94.4057" width="24.4756" height="15.7343" rx="4.5" fill="white"/>
  <rect x="197.553" y="66.4338" width="24.4756" height="15.7343" rx="7.86715" fill="white"/>
  <rect x="89.1602" y="54.1959" width="160.839" height="15.7343" rx="7.86715" fill="#F38596"/>
  <rect x="167.832" y="12.2378" width="24.4756" height="15.7343" rx="7.86715" fill="#F38596"/>
  <rect x="146.854" y="12.2378" width="24.4756" height="15.7343" rx="7.86715" fill="white"/>
  <rect x="188.812" y="12.2378" width="24.4756" height="15.7343" rx="7.86715" fill="white"/>
  <rect x="162.588" y="24.4756" width="66.4337" height="15.7343" rx="7.86715" fill="#F38596"/>
  <rect x="152.098" width="55.9442" height="15.7343" rx="7.86715" fill="#F38596"/>
  <rect x="33.2168" y="80.4197" width="204.546" height="15.7343" rx="7.86715" fill="#F38596"/>
  <rect y="106.644" width="150.35" height="15.7343" rx="7.86715" fill="#F38596"/>
  <path d="M183.724 51.3512C184.913 55.0654 185.662 58.9765 185.909 63.0231L184.911 63.0842C184.97 64.0484 185 65.0207 185 66C185 66.9793 184.97 67.9516 184.911 68.9158L185.909 68.9769C185.492 75.7907 183.654 82.2202 180.687 87.9728L179.798 87.5144C178.007 90.9873 175.795 94.2085 173.23 97.1107L173.98 97.7729C172.665 99.2602 171.26 100.665 169.773 101.98L169.111 101.23C164.297 105.485 158.606 108.767 152.344 110.771L152.649 111.724C148.935 112.913 145.023 113.662 140.977 113.909L140.916 112.911C139.952 112.97 138.979 113 138 113C137.021 113 136.048 112.97 135.084 112.911L135.023 113.909C128.209 113.492 121.78 111.654 116.027 108.687L116.486 107.798C113.013 106.007 109.792 103.795 106.889 101.23L106.227 101.98C104.74 100.665 103.335 99.2602 102.02 97.7729L102.77 97.1107C98.5154 92.2969 95.2332 86.6056 93.2288 80.344L92.2764 80.6489C91.0874 76.9346 90.3384 73.0235 90.0908 68.9769L91.0889 68.9158C91.0299 67.9516 91 66.9793 91 66C91 65.0207 91.0299 64.0484 91.0889 63.0842L90.0908 63.0231C90.5077 56.2093 92.3461 49.7798 95.3132 44.0272L96.202 44.4856C97.9932 41.0127 100.205 37.7915 102.77 34.8893L102.02 34.2271C103.335 32.7398 104.74 31.3347 106.227 30.0203L106.889 30.7697C111.703 26.5154 117.394 23.2332 123.656 21.2288L123.351 20.2764C127.065 19.0874 130.977 18.3384 135.023 18.0908L135.084 19.0889C136.048 19.0299 137.021 19 138 19C138.979 19 139.952 19.0299 140.916 19.0889L140.977 18.0908C147.791 18.5077 154.22 20.3461 159.973 23.3132L159.514 24.202C162.987 25.9932 166.208 28.2048 169.111 30.7697L169.773 30.0203C171.26 31.3347 172.665 32.7398 173.98 34.2271L173.23 34.8893C177.485 39.7031 180.767 45.3944 182.771 51.656L183.724 51.3512Z" stroke="#A21D21" stroke-width="2" stroke-dasharray="9 18 30 9 18 30"/>
  <path d="M182 66C182 90.3005 162.301 110 138 110C113.699 110 94 90.3005 94 66C94 41.6995 113.699 22 138 22C162.301 22 182 41.6995 182 66Z" fill="#F38596"/>
  <path d="M131.826 76.2127C131.6 75.6275 131.419 74.9748 131.283 74.2546C131.17 73.5118 131.113 72.8141 131.113 72.1614C131.113 71.126 131.215 70.1807 131.419 69.3255C131.623 68.4702 131.928 67.6712 132.336 66.9284C132.743 66.1632 133.253 65.4429 133.864 64.7677C134.475 64.07 135.189 63.3835 136.004 62.7083C136.864 61.9881 137.611 61.3241 138.245 60.7164C138.902 60.0862 139.457 59.4673 139.909 58.8596C140.362 58.2293 140.702 57.5879 140.928 56.9352C141.155 56.26 141.268 55.5172 141.268 54.707C141.268 54.0092 141.143 53.3678 140.894 52.7826C140.645 52.1749 140.283 51.6572 139.808 51.2296C139.355 50.8019 138.789 50.4643 138.109 50.2167C137.453 49.9692 136.717 49.8454 135.902 49.8454C134.136 49.8454 132.302 50.2167 130.4 50.9595C128.498 51.6797 126.698 52.7826 125 54.2681V44.106C126.743 43.0707 128.645 42.2942 130.706 41.7765C132.766 41.2588 134.894 41 137.091 41C139.196 41 141.155 41.2363 142.966 41.709C144.777 42.1591 146.351 42.8794 147.687 43.8697C149.045 44.86 150.098 46.1317 150.845 47.6847C151.615 49.2152 152 51.0608 152 53.2215C152 54.5944 151.842 55.8436 151.525 56.9689C151.208 58.0718 150.743 59.1184 150.132 60.1087C149.521 61.099 148.762 62.0556 147.857 62.9784C146.951 63.8787 145.909 64.8127 144.732 65.7806C143.94 66.4333 143.238 67.041 142.626 67.6036C142.038 68.1663 141.54 68.729 141.132 69.2917C140.747 69.8319 140.453 70.4171 140.249 71.0473C140.045 71.655 139.943 72.3527 139.943 73.1404C139.943 73.6806 140.011 74.232 140.147 74.7947C140.306 75.3574 140.509 75.8301 140.758 76.2127H131.826ZM136.785 91C134.974 91 133.468 90.4598 132.268 89.3795C131.068 88.2541 130.468 86.9262 130.468 85.3957C130.468 83.8202 131.068 82.5035 132.268 81.4456C133.468 80.3878 134.974 79.8589 136.785 79.8589C138.574 79.8589 140.057 80.3878 141.234 81.4456C142.411 82.481 143 83.7977 143 85.3957C143 87.0162 142.423 88.3554 141.268 89.4132C140.091 90.4711 138.596 91 136.785 91Z" fill="#A21D21"/>
  <path d="M133.826 76.2127C133.6 75.6275 133.419 74.9748 133.283 74.2546C133.17 73.5118 133.113 72.8141 133.113 72.1614C133.113 71.126 133.215 70.1807 133.419 69.3255C133.623 68.4702 133.928 67.6712 134.336 66.9284C134.743 66.1632 135.253 65.4429 135.864 64.7677C136.475 64.07 137.189 63.3835 138.004 62.7083C138.864 61.9881 139.611 61.3241 140.245 60.7164C140.902 60.0862 141.457 59.4673 141.909 58.8596C142.362 58.2293 142.702 57.5879 142.928 56.9352C143.155 56.26 143.268 55.5172 143.268 54.707C143.268 54.0092 143.143 53.3678 142.894 52.7826C142.645 52.1749 142.283 51.6572 141.808 51.2296C141.355 50.8019 140.789 50.4643 140.109 50.2167C139.453 49.9692 138.717 49.8454 137.902 49.8454C136.136 49.8454 134.302 50.2167 132.4 50.9595C130.498 51.6797 128.698 52.7826 127 54.2681V44.106C128.743 43.0707 130.645 42.2942 132.706 41.7765C134.766 41.2588 136.894 41 139.091 41C141.196 41 143.155 41.2363 144.966 41.709C146.777 42.1591 148.351 42.8794 149.687 43.8697C151.045 44.86 152.098 46.1317 152.845 47.6847C153.615 49.2152 154 51.0608 154 53.2215C154 54.5944 153.842 55.8436 153.525 56.9689C153.208 58.0718 152.743 59.1184 152.132 60.1087C151.521 61.099 150.762 62.0556 149.857 62.9784C148.951 63.8787 147.909 64.8127 146.732 65.7806C145.94 66.4333 145.238 67.041 144.626 67.6036C144.038 68.1663 143.54 68.729 143.132 69.2917C142.747 69.8319 142.453 70.4171 142.249 71.0473C142.045 71.655 141.943 72.3527 141.943 73.1404C141.943 73.6806 142.011 74.232 142.147 74.7947C142.306 75.3574 142.509 75.8301 142.758 76.2127H133.826ZM138.785 91C136.974 91 135.468 90.4598 134.268 89.3795C133.068 88.2541 132.468 86.9262 132.468 85.3957C132.468 83.8202 133.068 82.5035 134.268 81.4456C135.468 80.3878 136.974 79.8589 138.785 79.8589C140.574 79.8589 142.057 80.3878 143.234 81.4456C144.411 82.481 145 83.7977 145 85.3957C145 87.0162 144.423 88.3554 143.268 89.4132C142.091 90.4711 140.596 91 138.785 91Z" fill="white"/>
</svg>