<svg width="1440" height="950" viewBox="0 0 1440 950" fill="none" xmlns="http://www.w3.org/2000/svg">
<g clip-path="url(#clip0_683_898)">
<path d="M0.725586 484.465C56.2587 527.071 130.932 559.001 217.561 584.257C406.812 619.16 482.457 656.805 689.309 698.323C770.773 710.567 860.218 725.262 891.359 721.969C919.234 720.518 931.713 707.811 946.515 693.841C972.242 670.253 993.501 660.461 1013.6 643.459C1011.94 644.083 1030.85 634.639 1045.67 626.645C1059.97 613.836 1102.54 589.015 1099.31 593.57C1105.18 581.805 1119.03 562.946 1132.51 573.261C1151.32 609.513 1122.04 638.962 1111.95 640.804C1082.7 657.748 1067.3 674.605 1070.03 691.36C1068.23 724.827 1118.69 725.784 1167.2 727.946C1291.89 721.664 1334.98 727.424 1333.16 757.032C1322.68 788.134 1242.83 760.02 1167.62 780.982C1156.97 806.761 1363.76 778.821 1358.17 832.394C1347.78 859.145 1248.3 839.851 1228.17 841.678C1182.93 838.008 1168.36 834.367 1169.18 837.704C1182.93 842.172 1193.9 841.504 1205.88 844C1242.99 848.656 1263.82 852.515 1277.67 858.013C1315.86 863.627 1328.41 871.185 1325.83 885.257C1324.12 900.909 1303.87 904.217 1271.76 899.401C1251.42 897.471 1226.69 894.396 1198.06 889.783C1179.7 886.838 1159.97 883.719 1139.25 880.963C1142.29 887.592 1155.75 891.001 1171.8 896.702C1186.18 901.809 1203.3 906.277 1218.96 908.903C1244.25 913.124 1263.04 926.02 1258.45 942.819C1243.48 965.943 1134.01 919.536 1095.74 919.536C1005.24 923.192 947.849 898.414 914.736 878.293C824.202 870.851 509.97 871.533 266.144 850.368C148.04 830.03 110.355 807.994 56.5198 777.153L0.725586 745.252L0.725586 484.465Z" fill="#FBBFAC" stroke="#F8A592" stroke-miterlimit="10"/>
<path d="M3.42461 530.8C53.5451 575.016 123.11 597.429 215.036 619.943C298.779 635.001 441.087 689.808 657.357 723.289C712.991 733.995 788.868 741.219 871.725 750.069C904.288 744.048 916.216 743.831 917.783 761.427C918.842 765.678 920.061 768.042 921.222 791.064C918.581 818.714 913.662 832.786 912.327 845.624C910.934 856.475 913.778 868.661 914.736 878.308C946.05 896.354 981.689 908.134 1020.29 915.663C984.78 902.258 949.765 888.39 938.2 852.37C931.133 834.498 931.234 817.626 945.296 802.699C939.085 791.108 937.793 775.02 939.085 756.568C940.638 735.924 954.844 713.787 979.019 690.489C984.272 685.311 986.347 681.96 1020.3 660.33C1026.45 653.164 1032.91 646.578 1041.58 644.358C1053.3 645.141 1057.97 650.944 1061.98 657.226C1060.22 647.027 1059.97 637.337 1061.98 628.401L1093.03 598.546L1106.34 607.569L1101.37 589.784C1097.04 592.642 1092.97 594.919 1089.23 596.863C1069.44 608.86 1063.41 614.083 1045.65 626.689C1034.76 633.057 1023.93 639.092 1013.58 643.502C985.65 666.771 952.058 686.732 926.62 710.857C926.62 710.857 906.9 726.437 876.5 722.433C858.318 726.64 694.954 699.223 694.954 699.223C468.367 651.031 303.103 598.473 217.561 584.3C136.359 563.222 65.0667 528.595 0.725586 484.465L0.725586 530.35L3.42461 530.8Z" fill="#F8A592" stroke="#F8A592" stroke-miterlimit="10"/>
<path d="M1118.35 624.992C1120.85 628.14 1122.12 631.302 1122.18 634.45L1127.39 628.749C1123.9 628.662 1120.95 627.24 1118.37 624.992H1118.35Z" fill="#F8A592"/>
<path d="M1064.04 664.406C1070.22 671.283 1070.95 679.885 1069.76 689.082C1069.33 681.96 1071.45 675.562 1076.08 669.89C1071.13 668.962 1067.11 667.134 1064.04 664.406Z" fill="#F8A592"/>
<path d="M1076.72 710.03C1084.47 730.963 1115.32 735.098 1159.2 736.838C1162.44 741.234 1164.48 748.545 1166.51 755.886C1165.86 747.994 1165.41 740.305 1167.67 735.431C1177.76 734.836 1188.24 734.895 1199.03 735.518C1204.39 742.322 1204.18 749.111 1204.11 755.886C1206.36 747.486 1209.36 739.682 1214.92 733.937L1261.1 734.097C1265.96 738.289 1267.77 744.483 1269 751.055C1269.44 747.066 1272.76 740.552 1278.41 732.008C1302.83 734.372 1320.85 738.275 1330.18 744.237C1321.08 735.083 1307.14 727.249 1268.35 726.219C1249.24 726.19 1229.04 726.481 1210.63 727.09C1189.15 727.801 1170.08 727.757 1157.98 727.54C1136.97 728.396 1115.54 726.321 1093.45 719.546C1086.62 717.98 1081.52 714.193 1076.75 710.03H1076.72Z" fill="#F8A592"/>
<path d="M1168.86 786.103C1170.75 794.285 1170.71 801.408 1168.86 807.53C1175.09 800.436 1182.58 795.3 1198.55 796.388C1217.19 800.349 1225.04 805.121 1223.76 813.347C1226.99 806.064 1231.26 801.683 1236.06 798.797C1257.24 800.421 1276.58 802.496 1291.71 805.615C1297.78 811.2 1299.03 815.885 1298.95 820.339C1301.17 815.465 1304.05 810.837 1309.1 807.036C1318.62 805.861 1333.3 811.113 1350.74 815.552C1338.99 808.879 1324.7 802.931 1300.49 799.783C1259.4 795.445 1222.28 792.457 1193.63 792.312C1176.41 792.065 1178.09 789.962 1168.86 786.103Z" fill="#F8A592"/>
<path d="M1162.7 852.268C1166.21 845.537 1169.13 839.647 1169.17 837.733L1205.87 844.028L1250.75 850.774L1276.74 858.419C1287.64 859.086 1296.81 861.437 1305.11 864.657C1325.31 870.88 1324.32 875.914 1324.99 881.035C1313.81 868.878 1299.84 862.757 1278.65 862.568C1275.58 864.077 1274.76 866.92 1275.58 870.721C1271.92 865.992 1271.75 859.377 1263.1 856.997C1235.92 849.933 1225.41 848.685 1213.11 850.092C1209.49 852.471 1205.11 855.692 1203.7 860.813C1204.52 855.155 1205.21 849.527 1196.88 846.509L1172.93 843.767C1169.01 845.015 1165.73 847.989 1162.7 851.674" fill="#F8A592"/>
<path d="M1269.13 763.531L1267.25 772.684H1272.47L1269.13 762.762" fill="#F8A592"/>
<path d="M1202.7 764.198L1201.21 774.541L1206.19 774.005L1202.7 764.198Z" fill="#F8A592"/>
<path d="M1218.68 839.923L1222.55 826.069L1224.11 841.359L1218.68 839.923Z" fill="#F8A592"/>
<path d="M1295.31 846.335L1297.53 834.933L1300.54 846.553L1295.31 846.335Z" fill="#F8A592"/>
<path d="M1271.47 888.825C1271.34 892.437 1270.57 895.904 1268.9 899.139L1275.81 899.981C1272.28 895.643 1271.14 892.017 1271.48 888.825H1271.47Z" fill="#F8A592"/>
<path d="M1198.38 877.844L1196.71 888.825L1203.18 890.624C1200.47 886.374 1198.87 882.109 1198.38 877.858V877.844Z" fill="#F8A592"/>
<path d="M1139.23 880.977L1134.05 894.7C1137.1 891.857 1141.67 889.623 1149.54 888.724C1144.56 887.229 1140.28 885.257 1139.23 880.977Z" fill="#F8A592"/>
<path d="M1167.36 895.165C1168.76 898.849 1167.66 903.317 1166.22 907.887C1168.44 904.159 1171.17 900.663 1176.38 898.284L1167.37 895.165H1167.36Z" fill="#F8A592"/>
<path d="M1203.18 905.769C1212.53 909.222 1222.24 912.964 1220.67 915.634L1219.57 922.524C1222.93 919.057 1226.92 916.722 1232.2 916.649C1238.82 917.041 1244.81 919.681 1250.72 922.524C1243.75 914.995 1226.02 908.99 1203.18 905.769Z" fill="#F8A592"/>
<path d="M1211.47 944.705C1213.38 943.588 1214.5 940.077 1215.57 936.393C1215.17 939.903 1215.72 943.399 1217.23 946.91L1211.47 944.705Z" fill="#F8A592"/>
<path d="M1156.33 931.983L1160.33 922.539L1161 933.245L1155.6 931.794" fill="#F8A592"/>
<path d="M1123.52 779.503C1092.94 809.227 1083.44 850.716 1079.26 895.179C1101.75 882.399 1119.24 865.411 1123.52 837.341C1128.44 803.468 1128.36 784.42 1123.52 779.503Z" fill="#FBC5B8"/>
<path d="M1043 679.711C983.415 708.884 962.404 795.591 983.764 814.435C1006.55 834.527 1073.7 802.438 1096.22 751.896C1096.66 732.849 1058.38 746.123 1053.63 729.28C1051.27 720.867 1050.83 673.154 1042.98 679.711H1043Z" fill="#FBC5B8"/>
<path d="M1106.32 777.138C1084.69 799.957 1030.68 817.09 1011.71 837.341C998.739 852.355 1014.37 869.314 1035.93 869.314C1062.43 862.626 1085.11 825.765 1106.32 777.138Z" fill="#FAB8A9"/>
<path d="M953.813 774.541C1007.79 804.324 1057.17 792.588 1099.88 739.58C1085.21 759.585 1076.75 781.258 1031.66 793.139C999.523 800.465 979.744 795.083 953.799 774.556L953.813 774.541Z" fill="#F69685"/>
<path d="M1118.53 743.903C1102.56 809.386 1056.42 848.743 987.769 868.646C1033.01 859.391 1041.01 859.391 1073.28 833.714C1109.88 799.783 1113.98 775.194 1118.53 743.903Z" fill="#F69685"/>
<path d="M1141.79 762.762C1106.61 797.984 1090.22 844.768 1087.57 899.995C1095.66 869.024 1102.39 837.878 1109.53 820.673C1116.68 804.454 1126.9 783.884 1141.79 762.762Z" fill="#F69685"/>
</g>
<path d="M1218.5 186C1064.09 220.522 1017.39 361.398 790 347.5C620.074 337.564 622.667 295.165 692.5 195C735.033 150.854 762.392 141.355 822.5 173.5C947.748 231.67 921.806 288.495 936.5 374.5C949.052 651.554 742.692 692.891 576 698.5C469.572 706.805 408.262 730.267 304.5 708" stroke="url(#paint0_linear_683_898)" stroke-width="15"/>
<g clip-path="url(#clip1_683_898)">
<path opacity="0.65" d="M305.59 699.407L313.196 700.932L310.336 717.283L302.744 715.638L305.59 699.407Z" fill="#EF4B62" stroke="#EF4B62" stroke-miterlimit="10"/>
<path opacity="0.65" d="M304.918 700.085L313.604 701.764" stroke="#C62E3B" stroke-width="3" stroke-miterlimit="10"/>
<path opacity="0.65" d="M302.301 714.762L310.986 716.442" stroke="#C62E3B" stroke-width="3" stroke-miterlimit="10"/>
<path opacity="0.65" d="M304.422 702.655L313.108 704.334" stroke="#C73843" stroke-width="3" stroke-miterlimit="10"/>
<path opacity="0.65" d="M302.798 711.91L311.484 713.59" stroke="#C73843" stroke-width="3" stroke-miterlimit="10"/>
<path opacity="0.72" d="M309.601 638.051L272.348 631.525C264.248 630.106 256.531 635.522 255.112 643.622L237.086 746.525C235.667 754.625 241.083 762.342 249.183 763.761L286.436 770.287C294.536 771.706 302.253 766.29 303.672 758.19L321.698 655.287C323.117 647.187 317.701 639.47 309.601 638.051Z" fill="#FCF2E4"/>
<path d="M304.541 648.677L273.494 643.238C267.902 642.259 262.574 645.998 261.594 651.59L245.891 741.235C244.911 746.828 248.65 752.155 254.243 753.135L285.29 758.574C290.882 759.553 296.21 755.814 297.189 750.222L312.893 660.577C313.873 654.984 310.134 649.657 304.541 648.677Z" fill="#FFFFFA"/>
</g>
<g clip-path="url(#clip2_683_898)">
<path d="M1440 4.79792C1414.61 3.23045 1370.85 1.63905 1327.32 0.0476525C1309.63 -0.694203 1293.43 8.3277 1288.22 12.025C1283 15.7223 1268.87 17.3257 1261.46 21.2623C1254.05 25.1989 1234.75 36.9609 1236.96 58.9413C1237.29 62.2916 1237.59 71.3016 1237.84 84.1763C1239.28 156.088 1239.44 348.54 1238.01 348.54C1237.73 368.019 1272.72 390.79 1282.32 389.653C1327.7 390.179 1354.98 390.933 1408.16 385.262C1417.17 384.579 1425.77 383.874 1439.99 383.527L1439.99 4.79792L1440 4.79792Z" fill="#F0EBEB"/>
<path d="M1159 82.9441L1159 122.179C1187.3 120.097 1214.59 119.582 1238.39 121.078L1237.87 83.0039C1222.33 84.2244 1202.81 84.2842 1181.22 83.7099C1174.03 83.5184 1166.6 83.2552 1159.01 82.9441L1159 82.9441Z" fill="#F0EBEB"/>
<path d="M1440 21.442C1410.39 20.0779 1378.86 19.8865 1344.51 21.442C1301.26 24.2777 1274.1 64.6131 1270.79 89.2977C1272.25 93.4258 1247.76 91.2122 1238.38 92.4087L1238.38 113.073L1263.11 113.073C1266.63 113.444 1269.65 114.545 1269.89 119.654C1269.06 136.202 1268.72 146.672 1268.6 154.401C1268.4 166.139 1262.3 172.78 1253.97 174.156C1246.96 174.24 1242.47 174.766 1238.8 175.437L1238.89 194.976C1254.2 195.311 1262.04 199.056 1263.3 205.793C1267.35 228.156 1270.17 247.791 1270.62 262.126C1270.99 268.982 1252.58 268.767 1239 269.078L1238.95 290.472C1252.93 292.398 1273.73 292.949 1274.1 296.323C1275.84 316.76 1277.78 329.036 1279.95 331.992C1288.17 353.745 1308.67 365.866 1334.64 373.691C1340.36 376.659 1379.13 374.301 1407.44 375.522C1423.44 378.059 1431.6 377.353 1440 377.353L1440 21.442Z" fill="#A21D21"/>
<path d="M1396.19 30.1289C1404.73 38.8756 1394.64 46.4975 1376.99 63.0576C1330.07 111.35 1308.52 206.319 1302.36 306.697C1283.13 263.622 1284.16 107.138 1291.5 82.9561C1296.38 68.6455 1309.6 49.9794 1325.42 40.0123C1329.58 35.2979 1332.21 30.9545 1339.2 30.1408C1345.46 38.1935 1343.35 50.0512 1333.1 61.1432C1325.27 78.4451 1323.47 89.3815 1331.17 90.231C1338.32 92.6839 1344.39 86.8089 1347.36 56.7638C1358.47 32.7852 1375.19 25.0436 1396.21 30.1528L1396.19 30.1289Z" fill="#F38596"/>
<path d="M1440 82.7167C1431.38 144.243 1421.19 189.58 1407.62 200.516C1397.91 205.087 1398.83 188.622 1407.62 156.615C1419.06 126.642 1425.92 91.1284 1419.32 82.7167C1412.73 74.3051 1396.39 82.4535 1391.52 94.6103L1379.99 191.554C1378.86 208.09 1380.04 219.984 1385.48 223.382C1400.27 241.689 1394.08 257.998 1377.62 273.313C1350.69 284.118 1335.89 305.177 1327.5 331.657C1319.28 368.414 1343.66 367.876 1399.27 331.657C1412.01 323.245 1430.95 196.005 1440 178.739L1440 82.7167Z" fill="#F04D65"/>
<path d="M1317.27 226.301C1310.87 255.389 1303.63 284.597 1306.3 312.452C1312.12 332.303 1317.87 348.995 1322.76 336.228C1325.78 304.483 1346.88 284.405 1378.74 269.102C1362.37 280.684 1345.39 278.028 1330.26 274.773C1319.45 270.478 1316.1 251.237 1317.28 226.301L1317.27 226.301Z" fill="#ED1E2B"/>
<path d="M1434.11 33.886C1424.66 37.0448 1416.32 36.0996 1408.33 33.886C1409.75 40.0721 1407.29 43.7335 1403.76 46.689L1375.41 70.1052C1388.78 64.5054 1402.16 58.8937 1408.52 61.5141C1419.81 64.9601 1422.67 66.4917 1423.52 67.5446C1426.29 55.3519 1431.47 50.6256 1437.98 49.9794C1435.18 44.3318 1432.45 38.6841 1434.14 33.886L1434.11 33.886Z" fill="#DC1F33"/>
<path d="M1238.38 286.846C1247.19 287.337 1271.82 292.638 1275.6 295.031C1276.29 293.403 1276.67 313.206 1282.33 328.546C1286.96 350.849 1307.15 362.312 1332.68 369.515C1343.08 372.925 1385.6 371.238 1404.29 370.855C1412.3 369.551 1418.84 372.1 1427.1 372.913C1432.39 373.464 1437.2 372.064 1440.01 369.336L1440.01 377.388C1429.08 377.747 1418.23 377.053 1407.45 375.558C1368.42 374.708 1344.25 375.737 1338.41 374.624C1310.11 366.703 1287.52 354.726 1279.97 332.016C1276.67 324.047 1275.07 310.741 1274.12 296.347L1238.98 290.496L1238.4 286.834L1238.38 286.846Z" fill="#A21D21"/>
<path d="M1281.6 168.868C1278.81 180.474 1271.14 186.828 1261.29 190.812C1267.47 193.014 1272.7 197.8 1276.3 207.097L1279.96 255.389C1281.1 266.098 1272.07 273.481 1257.64 277.334C1268.13 278.554 1278.62 283.676 1289.1 292.697C1282.58 251.417 1280.08 210.148 1281.6 168.868Z" fill="#ED1E2B"/>
<path d="M1181.21 83.7099L1181.21 120.862" stroke="#E4E4E4" stroke-width="1.75" stroke-miterlimit="10"/>
<path d="M1173.96 83.4945L1173.96 120.862" stroke="#E4E4E4" stroke-width="2.25" stroke-miterlimit="10"/>
<path d="M1167.36 83.2672L1167.36 121.604" stroke="#E4E4E4" stroke-width="2.5" stroke-miterlimit="10"/>
<path d="M1238.38 92.4087L1223.75 93.5095L1223.75 112.989L1238.38 113.085L1238.38 92.4087Z" fill="#F8B2B6"/>
<path d="M1160.27 259.649L1160.27 298.884C1188.57 296.802 1215.86 296.287 1239.66 297.783L1239.13 259.709C1223.6 260.929 1204.07 260.989 1182.49 260.415C1175.3 260.223 1167.87 259.96 1160.28 259.649L1160.27 259.649Z" fill="#F0EBEB"/>
<path d="M1182.48 260.415L1182.48 297.567" stroke="#E4E4E4" stroke-width="1.75" stroke-miterlimit="10"/>
<path d="M1175.23 260.199L1175.23 297.567" stroke="#E4E4E4" stroke-width="2.25" stroke-miterlimit="10"/>
<path d="M1168.63 259.972L1168.63 298.321" stroke="#E4E4E4" stroke-width="2.5" stroke-miterlimit="10"/>
<path d="M1239.44 269.126C1237.25 269.162 1230.3 269.784 1224.81 270.226L1224.81 289.706C1230.6 290.005 1236.11 290.316 1239.6 290.615L1239.44 269.126Z" fill="#F8B2B6"/>
<path d="M1239.58 197.226L1239.58 171.847L1216.58 171.847L1216.58 197.226L1239.58 197.226Z" fill="#1B466F"/>
<path d="M1236.79 197.226L1236.79 175.544L1216.58 175.544L1216.58 171.847L1239.58 171.847L1239.58 197.226L1236.79 197.226Z" fill="#15234B"/>
<path d="M1224.81 170.196L1224.81 200.372" stroke="#9FBBE2" stroke-width="4" stroke-miterlimit="10"/>
</g>
<defs>
<linearGradient id="paint0_linear_683_898" x1="1204" y1="179.5" x2="304" y2="717" gradientUnits="userSpaceOnUse">
<stop stop-color="#A21D21"/>
<stop offset="1" stop-color="#CD181F" stop-opacity="0.79"/>
</linearGradient>
<clipPath id="clip0_683_898">
<rect width="1359" height="467" fill="white" transform="translate(0 483)"/>
</clipPath>
<clipPath id="clip1_683_898">
<rect width="73.74" height="136.31" fill="white" transform="translate(250.516 629) rotate(6.53617)"/>
</clipPath>
<clipPath id="clip2_683_898">
<rect width="390" height="281" fill="white" transform="translate(1440) rotate(90)"/>
</clipPath>
</defs>
</svg>
