<svg width="1359" height="467" viewBox="0 0 1359 467" fill="none" xmlns="http://www.w3.org/2000/svg">
<g clip-path="url(#clip0_127_73)">
<path d="M0.725586 1.46518C56.2587 44.0714 130.932 76.0007 217.561 101.257C406.812 136.16 482.457 173.805 689.309 215.323C770.773 227.567 860.218 242.262 891.359 238.969C919.234 237.518 931.713 224.811 946.515 210.841C972.242 187.253 993.501 177.461 1013.6 160.459C1011.94 161.083 1030.85 151.639 1045.67 143.645C1059.97 130.836 1102.54 106.015 1099.31 110.57C1105.18 98.8052 1119.03 79.9465 1132.51 90.2608C1151.32 126.513 1122.04 155.962 1111.95 157.804C1082.7 174.748 1067.3 191.605 1070.03 208.36C1068.23 241.827 1118.69 242.784 1167.2 244.946C1291.89 238.664 1334.98 244.424 1333.16 274.032C1322.68 305.134 1242.83 277.02 1167.62 297.982C1156.97 323.761 1363.76 295.821 1358.17 349.394C1347.78 376.145 1248.3 356.851 1228.17 358.678C1182.93 355.008 1168.36 351.367 1169.18 354.704C1182.93 359.172 1193.9 358.504 1205.88 361C1242.99 365.656 1263.82 369.515 1277.67 375.013C1315.86 380.627 1328.41 388.185 1325.83 402.257C1324.12 417.909 1303.87 421.217 1271.76 416.401C1251.42 414.471 1226.69 411.396 1198.06 406.783C1179.7 403.838 1159.97 400.719 1139.25 397.963C1142.29 404.592 1155.75 408.001 1171.8 413.702C1186.18 418.809 1203.3 423.277 1218.96 425.903C1244.25 430.124 1263.04 443.02 1258.45 459.819C1243.48 482.943 1134.01 436.536 1095.74 436.536C1005.24 440.192 947.849 415.414 914.736 395.293C824.202 387.851 509.97 388.533 266.144 367.368C148.04 347.03 110.355 324.994 56.5198 294.153L0.725586 262.252L0.725586 1.46518Z" fill="#FBBFAC" stroke="#F8A592" stroke-miterlimit="10"/>
<path d="M3.42461 47.7996C53.5451 92.0161 123.11 114.429 215.036 136.943C298.779 152.001 441.087 206.808 657.357 240.289C712.991 250.995 788.868 258.219 871.725 267.069C904.288 261.048 916.216 260.831 917.783 278.427C918.842 282.678 920.061 285.042 921.222 308.064C918.581 335.714 913.662 349.786 912.327 362.624C910.934 373.475 913.778 385.661 914.736 395.308C946.05 413.354 981.689 425.134 1020.29 432.663C984.78 419.258 949.765 405.39 938.2 369.37C931.133 351.498 931.234 334.626 945.296 319.699C939.085 308.108 937.793 292.02 939.085 273.568C940.638 252.924 954.844 230.787 979.019 207.489C984.272 202.311 986.347 198.96 1020.3 177.33C1026.45 170.164 1032.91 163.578 1041.58 161.358C1053.3 162.141 1057.97 167.944 1061.98 174.226C1060.22 164.027 1059.97 154.337 1061.98 145.401L1093.03 115.546L1106.34 124.569L1101.37 106.784C1097.04 109.642 1092.97 111.919 1089.23 113.863C1069.44 125.86 1063.41 131.083 1045.65 143.689C1034.76 150.057 1023.93 156.092 1013.58 160.502C985.65 183.771 952.058 203.732 926.62 227.857C926.62 227.857 906.9 243.437 876.5 239.433C858.318 243.64 694.954 216.223 694.954 216.223C468.367 168.031 303.103 115.473 217.561 101.3C136.359 80.2221 65.0667 45.5946 0.725586 1.46518L0.725586 47.3499L3.42461 47.7996Z" fill="#F8A592" stroke="#F8A592" stroke-miterlimit="10"/>
<path d="M1118.35 141.992C1120.85 145.14 1122.12 148.302 1122.18 151.45L1127.39 145.749C1123.9 145.662 1120.95 144.24 1118.37 141.992H1118.35Z" fill="#F8A592"/>
<path d="M1064.04 181.406C1070.22 188.283 1070.95 196.885 1069.76 206.082C1069.33 198.96 1071.45 192.562 1076.08 186.89C1071.13 185.962 1067.11 184.134 1064.04 181.406Z" fill="#F8A592"/>
<path d="M1076.72 227.03C1084.47 247.963 1115.32 252.098 1159.2 253.838C1162.44 258.234 1164.48 265.545 1166.51 272.886C1165.86 264.994 1165.41 257.305 1167.67 252.431C1177.76 251.836 1188.24 251.895 1199.03 252.518C1204.39 259.322 1204.18 266.111 1204.11 272.886C1206.36 264.486 1209.36 256.682 1214.92 250.937L1261.1 251.097C1265.96 255.289 1267.77 261.483 1269 268.055C1269.44 264.066 1272.76 257.552 1278.41 249.008C1302.83 251.372 1320.85 255.275 1330.18 261.237C1321.08 252.083 1307.14 244.249 1268.35 243.219C1249.24 243.19 1229.04 243.481 1210.63 244.09C1189.15 244.801 1170.08 244.757 1157.98 244.54C1136.97 245.396 1115.54 243.321 1093.45 236.546C1086.62 234.98 1081.52 231.193 1076.75 227.03H1076.72Z" fill="#F8A592"/>
<path d="M1168.86 303.103C1170.75 311.285 1170.71 318.408 1168.86 324.53C1175.09 317.436 1182.58 312.3 1198.55 313.388C1217.19 317.349 1225.04 322.121 1223.76 330.347C1226.99 323.064 1231.26 318.683 1236.06 315.797C1257.24 317.421 1276.58 319.496 1291.71 322.615C1297.78 328.2 1299.03 332.885 1298.95 337.339C1301.17 332.465 1304.05 327.837 1309.1 324.036C1318.62 322.861 1333.3 328.113 1350.74 332.552C1338.99 325.879 1324.7 319.931 1300.49 316.783C1259.4 312.445 1222.28 309.457 1193.63 309.312C1176.41 309.065 1178.09 306.962 1168.86 303.103Z" fill="#F8A592"/>
<path d="M1162.7 369.268C1166.21 362.537 1169.13 356.647 1169.17 354.733L1205.87 361.028L1250.75 367.774L1276.74 375.419C1287.64 376.086 1296.81 378.437 1305.11 381.657C1325.31 387.88 1324.32 392.914 1324.99 398.035C1313.81 385.878 1299.84 379.757 1278.65 379.568C1275.58 381.077 1274.76 383.92 1275.58 387.721C1271.92 382.992 1271.75 376.377 1263.1 373.997C1235.92 366.933 1225.41 365.685 1213.11 367.092C1209.49 369.471 1205.11 372.692 1203.7 377.813C1204.52 372.155 1205.21 366.527 1196.88 363.509L1172.93 360.767C1169.01 362.015 1165.73 364.989 1162.7 368.674" fill="#F8A592"/>
<path d="M1269.13 280.531L1267.25 289.684H1272.47L1269.13 279.762" fill="#F8A592"/>
<path d="M1202.7 281.198L1201.21 291.541L1206.19 291.005L1202.7 281.198Z" fill="#F8A592"/>
<path d="M1218.68 356.923L1222.55 343.069L1224.11 358.359L1218.68 356.923Z" fill="#F8A592"/>
<path d="M1295.31 363.335L1297.53 351.933L1300.54 363.553L1295.31 363.335Z" fill="#F8A592"/>
<path d="M1271.47 405.825C1271.34 409.437 1270.57 412.904 1268.9 416.139L1275.81 416.981C1272.28 412.643 1271.14 409.017 1271.48 405.825H1271.47Z" fill="#F8A592"/>
<path d="M1198.38 394.844L1196.71 405.825L1203.18 407.624C1200.47 403.374 1198.87 399.109 1198.38 394.858V394.844Z" fill="#F8A592"/>
<path d="M1139.23 397.977L1134.05 411.7C1137.1 408.857 1141.67 406.623 1149.54 405.724C1144.56 404.229 1140.28 402.257 1139.23 397.977Z" fill="#F8A592"/>
<path d="M1167.36 412.165C1168.76 415.849 1167.66 420.317 1166.22 424.887C1168.44 421.159 1171.17 417.663 1176.38 415.284L1167.37 412.165H1167.36Z" fill="#F8A592"/>
<path d="M1203.18 422.769C1212.53 426.222 1222.24 429.964 1220.67 432.634L1219.57 439.524C1222.93 436.057 1226.92 433.722 1232.2 433.649C1238.82 434.041 1244.81 436.681 1250.72 439.524C1243.75 431.995 1226.02 425.99 1203.18 422.769Z" fill="#F8A592"/>
<path d="M1211.47 461.705C1213.38 460.588 1214.5 457.077 1215.57 453.393C1215.17 456.903 1215.72 460.399 1217.23 463.91L1211.47 461.705Z" fill="#F8A592"/>
<path d="M1156.33 448.983L1160.33 439.539L1161 450.245L1155.6 448.794" fill="#F8A592"/>
<path d="M1123.52 296.503C1092.94 326.227 1083.44 367.716 1079.26 412.179C1101.75 399.399 1119.24 382.411 1123.52 354.341C1128.44 320.468 1128.36 301.42 1123.52 296.503Z" fill="#FBC5B8"/>
<path d="M1043 196.711C983.415 225.884 962.404 312.591 983.764 331.435C1006.55 351.527 1073.7 319.438 1096.22 268.896C1096.66 249.849 1058.38 263.123 1053.63 246.28C1051.27 237.867 1050.83 190.154 1042.98 196.711H1043Z" fill="#FBC5B8"/>
<path d="M1106.32 294.138C1084.69 316.957 1030.68 334.09 1011.71 354.341C998.739 369.355 1014.37 386.314 1035.93 386.314C1062.43 379.626 1085.11 342.765 1106.32 294.138Z" fill="#FAB8A9"/>
<path d="M953.813 291.541C1007.79 321.324 1057.17 309.588 1099.88 256.58C1085.21 276.585 1076.75 298.258 1031.66 310.139C999.523 317.465 979.744 312.083 953.799 291.556L953.813 291.541Z" fill="#F69685"/>
<path d="M1118.53 260.903C1102.56 326.386 1056.42 365.743 987.769 385.646C1033.01 376.391 1041.01 376.391 1073.28 350.714C1109.88 316.783 1113.98 292.194 1118.53 260.903Z" fill="#F69685"/>
<path d="M1141.79 279.762C1106.61 314.984 1090.22 361.768 1087.57 416.995C1095.66 386.024 1102.39 354.878 1109.53 337.673C1116.68 321.454 1126.9 300.884 1141.79 279.762Z" fill="#F69685"/>
</g>
<defs>
<clipPath id="clip0_127_73">
<rect width="1359" height="467" fill="white"/>
</clipPath>
</defs>
</svg>
