<svg width="25" height="25" viewBox="0 0 25 25" fill="none" xmlns="http://www.w3.org/2000/svg">
<circle cx="12.5" cy="12.5" r="12.5" fill="#ED1E2B" fill-opacity="0.16"/>
<path d="M12.5 7C9.475 7 7 9.475 7 12.5C7 15.525 9.475 18 12.5 18C15.525 18 18 15.525 18 12.5C18 9.475 15.525 7 12.5 7ZM12.5 8.375C14.7825 8.375 16.625 10.2175 16.625 12.5C16.625 14.7825 14.7825 16.625 12.5 16.625C10.2175 16.625 8.375 14.7825 8.375 12.5C8.375 10.2175 10.2175 8.375 12.5 8.375ZM11.8125 9.75V12.8025L12.0325 12.9812L12.72 13.6687L13.1875 14.1912L14.1775 13.2013L13.655 12.7337L13.1875 12.2663V9.7775H11.8125V9.75Z" fill="#A21D21"/>
</svg>
