<svg width="1440" height="567" viewBox="0 0 1440 567" fill="none" xmlns="http://www.w3.org/2000/svg">
<path d="M190.5 149.001C160.5 163.001 22.5495 130.224 -2.5 149.001L-15 229.5L1440 196V146.5C1440 146.5 1396.5 120.001 1366.5 121.001C1336.5 122 1268.11 139.913 1248.5 139.001C1228.89 138.088 1135.4 104.725 1098 104.001C1060.6 103.276 1008.5 118.5 986 100.001C963.5 81.5012 966.5 56 941 49.5006C915.5 43.0012 890 54 869.5 49.5006C849 45.0012 815.814 0.214561 789 0.500632C762.186 0.786704 737.97 72.5162 661 79.0006C584.03 85.485 517 69.5006 487.5 73.5006C458 77.5006 397.025 107.909 374 97.0006C350.975 86.0925 330.5 54.0006 309.5 60.5006C288.5 67.0006 284.5 108.501 272 112.501C259.5 116.501 241.476 102.427 232.5 106.001C223.524 109.574 220.5 135.001 190.5 149.001Z" fill="#A21D21"/>
<path d="M222 149.5C209.661 152.965 214 171 190 166.5C141.346 158.333 133.321 169.92 119.5 191L202.5 203L1440 221.5V174C1426.61 157.423 1412.35 152.427 1366.5 156.5C1293.56 169.254 1265.5 187.688 1244.5 180C1198.55 163.177 1181.45 153.381 1095 146.5C1031.13 143.279 1013.26 165.772 989 149C964.738 132.227 965 103.5 938.5 94.4999C912 85.4997 892.5 103 865 94.4999C837.5 85.9997 816.306 43.9018 787 45.4999C757.694 47.0979 732.5 109.5 671.5 120C610.5 130.5 518.113 120.14 482 116.5C445.887 112.86 429 126.5 381 140.5C333 154.5 326.5 95.4999 300 103.5C273.5 111.5 274.539 148.237 258 156.5C241.461 164.763 242.803 145.556 222 149.5Z" fill="#ED1E2B"/>
<path d="M-22.5 180.5L-0.5 674H1445C1425.23 661.601 1495 219 1431.5 190C1368 161 1352.65 225.963 1257.5 205C1162.35 184.037 1124.5 212.5 1019 194.501C913.5 176.502 844.5 95.5018 818.5 139.501C792.5 183.5 647 152.5 548.5 170C450 187.5 349.341 141.335 324.5 179.001C299.659 216.666 277.5 175.001 256 173.001C234.5 171.001 240.503 195.252 205 185.501C124.326 177.918 57.2518 177.925 -22.5 180.5Z" fill="url(#paint0_linear_718_896)"/>
<defs>
<linearGradient id="paint0_linear_718_896" x1="729.166" y1="126.577" x2="729.166" y2="674" gradientUnits="userSpaceOnUse">
<stop offset="0.18072" stop-color="#F04D65"/>
<stop offset="0.762153" stop-color="#ED1E2B"/>
</linearGradient>
</defs>
</svg>
